<?xml version="1.0" encoding="UTF-8" standalone="no"?>
<!-- Created with Inkscape (http://www.inkscape.org/) -->

<svg
   xmlns:dc="http://purl.org/dc/elements/1.1/"
   xmlns:cc="http://creativecommons.org/ns#"
   xmlns:rdf="http://www.w3.org/1999/02/22-rdf-syntax-ns#"
   xmlns:svg="http://www.w3.org/2000/svg"
   xmlns="http://www.w3.org/2000/svg"
   version="1.0"
   width="675"
   height="1300"
   id="svg2116">
  <metadata
     id="metadata255">
    <rdf:RDF>
      <cc:Work
         rdf:about="">
        <dc:format>image/svg+xml</dc:format>
        <dc:type
           rdf:resource="http://purl.org/dc/dcmitype/StillImage" />
        <dc:title></dc:title>
      </cc:Work>
    </rdf:RDF>
  </metadata>
  <defs
     id="defs2118" />
  <path
     d="m 429.09602,1204.3464 2.45235,2.2671 -4.85854,4.3278 1.0207,1.0207 1.0207,2.0414 -2.57216,3.5929 2.81713,1.5106 4.85854,1.0207 0.48994,-2.0414 2.81713,3.5929 4.61357,0 3.30707,-3.5929 4.32778,0 -4.57274,2.2864 0.24496,2.5721 1.02071,2.2864 -2.81714,2.8172 -3.0621,0 0.53076,3.8378 5.59344,-1.0207 6.65498,6.1242 -0.32663,0.4082 4.81771,3.1439 1.06153,2.5313 4.40943,1.9189 3.38873,0.4082 1.46981,4.0012 5.26682,1.2657 3.55204,0.6533 1.91892,-2.1231 -1.91892,-2.7355 -0.81656,-5.92 1.67395,-1.8781 2.3272,0 1.06153,2.3271 -0.65325,4.2054 1.46981,1.0615 3.79701,-1.2657 1.26567,-4.2053 -1.67395,-1.7147 4.20529,0 1.46981,-2.7356 1.46981,0.2042 3.38873,3.1846 2.44968,0.3266 0.0817,-2.6539 -2.12306,-2.7354 -1.87809,0 -0.65325,0.2041 -1.26567,-0.6124 1.06153,-1.0615 0,-1.919 2.12306,-0.6123 1.26567,-2.9396 -1.06153,-1.0616 -0.20414,-3.5928 -2.73548,0 -2.73548,-3.3888 0,-2.4905 2.93962,-1.5107 5.26682,-1.0206 8.20644,0.2041 2.53134,-1.7148 -0.85739,-5.2668 -3.79701,-3.5521 -4.61357,0.6125 -1.26567,-1.0615 -0.20414,-3.7562 3.3479,-2.9805 -2.53134,-3.1437 -1.67395,-4.4503 -2.73548,-1.6739 0,-2.9396 -0.2858,-0.9392 1.1331,-1.3481 1.31042,-4.5949 3.31687,-8.1322 1.80176,-1.0164 4.34061,0.5285 0,-6.8716 -1.80166,-1.7892 0,-7.3597 -0.77807,-2.5209 0,-4.0661 2.57973,-2.5617 0,-5.0827 -1.26927,-1.0165 0.24567,-7.1157 -2.04754,-1.0164 -3.07123,0 -2.57974,-2.0331 -2.78457,3.2935 -2.29316,0.2847 -2.0476,2.7649 -2.04739,-0.4879 -4.38175,-3.8221 -1.515,-4.8388 -0.77807,-3.2121 -12.57152,0 -4.62728,-2.8057 3.07119,-4.0662 -6.14243,-0.2439 -4.09493,4.5947 -4.8731,-0.5286 -0.49136,2.8057 -3.07118,0.244 -0.24567,-3.5376 -2.5799,-0.7725 -1.80176,2.033 0,-5.0827 -3.07113,2.2771 -4.58644,-0.7725 -1.55604,3.0495 -9.45944,5.0827 0,2.5616 -2.04739,0 0,-4.5947 -5.36436,-2.521 0.49135,-4.5948 -4.832,-3.5373 0,-4.3101 -3.60354,-0.7727 0.24563,-4.0661 -2.78452,-0.244 0.24568,-2.8055 -5.11883,0 -0.77797,2.521 -1.5152,-3.5376 -2.33401,1.7891 -5.85591,0.7319 -1.31037,1.789 -4.09488,-3.0494 -5.36445,3.5781 2.04754,2.765 -3.56264,4.8386 -4.3816,-2.521 -7.16617,0.2439 0,5.0828 -2.04754,0 -0.49135,-2.277 -3.07114,0.4879 -0.53245,-5.8552 -2.78456,3.0495 -3.07109,-1.2604 -5.65107,0.5285 -1.02385,2.521 -3.31686,0.7727 -0.5324,-2.8058 -5.85575,0.7726 0,1.7892 -4.09494,0.244 -1.80177,-1.2606 -2.04749,1.0166 -0.53234,3.0495 -6.8796,0.2439 -3.60354,4.3101 3.07134,2.277 -4.09493,3.3343 1.26927,2.277 -1.02365,5.5707 4.09498,0.5284 1.55599,-1.5451 0.77803,1.0167 9.70506,-1.2607 6.38815,-4.554 -5.61008,5.3267 0.49135,2.521 5.11873,-2.277 -1.02375,3.5782 5.65103,0.244 -0.24573,1.5043 -6.14242,-0.244 -4.87295,-1.2603 -5.89675,-2.8057 -3.56264,4.066 4.58638,1.5451 -0.24572,6.8311 1.26947,-1.0165 2.82551,-4.3101 5.36441,3.0496 2.57978,0.5286 1.0238,4.0661 -1.55604,2.765 -3.31702,-0.244 -3.07118,0 -5.11873,0.7726 -8.72217,0.4879 -1.76091,2.3177 2.53889,1.5044 2.8255,-0.244 2.29327,2.0331 3.31687,-0.244 5.4053,6.0992 1.26951,6.5871 -1.80186,3.5781 5.3644,1.0166 5.89671,-0.2846 1.26957,-2.277 -2.29322,-3.0495 2.29322,1.0164 2.33401,-0.244 4.09489,2.2771 2.53894,-0.488 0,-4.3507 1.02384,4.3507 3.31681,5.3267 7.16627,0.488 0.28658,-1.5045 1.76091,2.521 4.38156,0.7725 3.31696,0 3.07114,4.8386 4.09493,1.0166 1.51515,-2.277 -0.73703,2.7649 3.56249,1.5451 4.62738,4.5541 1.51509,2.8056 -0.4914,3.2936 -0.53224,3.3342 3.07109,2.277 1.55609,-1.789 -1.55609,-2.0332 0,-4.554 3.07129,0.7319 1.02374,-3.0497 0.77807,1.7892 3.31682,2.8056 1.55609,-2.5616 -1.55609,-3.5375 2.82566,3.8221 3.56254,-0.5286 -0.73713,-1.7892 3.31696,0.7728 2.53889,3.0494 -1.26952,2.0331 -3.31676,-1.0165 -3.84926,-1.7891 -2.04749,2.5616 3.07109,1.0167 2.29322,3.5374 13.84099,-1.2604 3.56263,0.7724 -1.76086,2.3046 z"
     id="path2684"
     style="fill:#c95eda;fill-opacity:1;fill-rule:evenodd;stroke:#000000;stroke-width:0.5;stroke-linecap:butt;stroke-linejoin:miter;stroke-miterlimit:4;stroke-opacity:1;stroke-dasharray:none;display:inline" />
  <path
     d="m 248.53125,585.34375 c -0.89864,-0.0159 -1.74007,0.16633 -2.09375,0.59375 3.02572,-0.73421 4.54697,6.00191 5.1875,0.84375 0.0835,-0.86255 -1.59602,-1.41103 -3.09375,-1.4375 z M 238.125,590.625 c -1.67758,0.0266 -3.21564,0.36942 -4.40625,1.1875 -5.59476,1.93271 -10.24084,5.52878 -16.78125,5.15625 -5.81839,-4.54682 -3.90295,1.66717 -6.3125,5.6875 -0.72002,6.90585 -6.73111,4.50592 -11.5,4.5 -0.1789,-0.24474 -0.31531,-0.51925 -0.40625,-0.78125 l -0.625,0.53125 c -0.48151,-0.0952 -0.95423,0.20691 -1.3125,0.5 -0.83085,0.91134 -1.51031,-0.57499 -2.40625,0.34375 -1.74169,-0.63157 -2.30906,1.37469 -3.125,2.4375 -0.23107,0.87285 -1.54269,1.54228 -1.25,2.40625 1.79834,0.44407 -0.56173,1.32814 0.40625,2.125 -0.13019,1.09835 -0.9879,1.58488 -1.65625,2.25 0.0591,1.23601 -0.58577,2.52814 -0.0625,3.71875 -0.11678,1.31643 -0.44582,2.93603 -1.625,3.78125 0.0204,1.24686 -0.73866,2.09392 -1.8125,2.59375 -0.64997,1.09686 -0.67634,2.86235 -1.09375,4.21875 -0.51928,0.93551 0.4098,2.99835 -1.3125,2.78125 -1.00725,-0.65625 -2.12951,-0.31415 -3.21875,-0.34375 -1.41919,-0.87976 -2.10572,0.94769 -3.1875,1.46875 -1.48975,0.30344 -2.48518,2.574 -4.125,1.46875 -1.37944,-0.72482 -2.16859,-2.62533 -3.875,-2.78125 -1.58566,0.0829 -1.39773,2.23374 -2,3.1875 -1.10564,0.55904 -0.87167,1.71071 -1.625,2.4375 1.08924,1.01645 2.60446,1.70824 3,3.28125 1.26664,-0.17813 2.65562,-0.21989 3.84375,0.40625 1.18116,0.0365 1.94847,2.00262 3.03125,0.8125 0.7245,-1.27005 1.54269,0.87155 0.6875,1.25 -1.88232,1.35146 -4.34192,2.04427 -5.375,4.3125 -0.1466,1.09588 -2.00122,0.82156 -1.875,1.78125 -1.66716,0.24967 -3.34919,-0.0426 -5.03125,0.15625 -0.82289,-0.33897 -1.24004,-1.49752 -2.09375,-0.28125 -0.86513,0.7564 -2.28153,1.43439 -2.40625,2.625 0.40698,1.27893 -0.74749,2.07681 -1.875,1.875 -0.72251,1.27893 -2.14733,1.61316 -3.53125,1.8125 -0.5143,0.54966 1.75603,1.47962 0.3125,2.03125 0.82438,0.78997 1.76175,1.59952 2.40625,2.59375 1.3213,1.51133 2.3043,3.67255 4.40625,4.21875 1.49572,0.009 1.58805,1.4908 2,2.5625 1.00277,1.42499 2.1395,3.12994 4.03125,3.40625 1.65623,1.58287 0.7671,4.25282 1.75,6.1875 2.53129,0.82894 5.42089,0.61464 8.0625,1.1875 0.65096,0.61974 0.71719,2.31101 1.875,1.1875 1.48329,0.65279 0.81391,2.54262 1.96875,3.375 1.45497,-0.35328 1.50555,1.67516 2.84375,1.5 1.08824,-0.4944 1.95764,0.16447 2.90625,0.59375 1.38143,-0.22895 1.8513,-1.76448 2.90625,-2.53125 0.40498,-0.73717 1.81282,-1.78041 2.1875,-0.5 0.21864,1.01939 -1.92152,1.44852 -0.3125,1.9375 0.89892,0.51414 2.43783,-0.97104 2.53125,0.65625 0.73544,0.55755 1.29189,1.6472 2.28125,0.6875 1.44702,0.16776 2.29577,-1.28093 2.5,-2.53125 1.07234,-0.78254 0.0424,-1.91728 0.1875,-2.875 1.08577,-0.375 1.49039,-1.36777 1.59375,-2.4375 0.93569,0.11349 1.53946,-0.51826 2.5,-0.40625 1.34764,-0.14803 0.68341,-1.61432 0.75,-2.40625 0.60177,-1.10328 -0.39028,-1.85428 -1,-2.53125 0.74388,-1.49159 -2.35288,-1.11827 -1.40625,-2.375 0.80649,-0.59259 1.52921,-1.20545 1.5625,-2.25 1.3531,-0.23882 2.39442,-1.15396 3.1875,-2.21875 0.95855,-1.7536 2.48701,-3.08884 3.375,-4.875 1.47633,-0.83189 2.44725,1.4921 3.9375,1.21875 0.8547,0.54966 1.28847,1.78027 2.25,2.34375 0.92476,0.52104 0.24281,2.36563 1.5,2.1875 1.27856,0.75591 1.35931,2.60216 1.8125,3.90625 -0.88103,1.29226 0.69947,2.23899 1.21875,3.25 -0.0745,2.07827 1.04734,4.09524 2.875,5.125 0.74288,0.21464 1.4652,2.07959 2.0625,0.90625 0.55306,-1.73485 2.1341,-0.0315 3.15625,0.21875 1.34417,0.87925 1.89985,2.86186 1.59375,4.40625 -0.72152,1.40524 -1.72423,3.02897 -0.875,4.65625 1.12204,0.89506 1.22981,3.35526 3.09375,2.90625 0.56896,-0.87335 1.84667,-0.73059 2.71875,-1.1875 1.05147,0.375 1.88383,-0.0761 2.5,-0.9375 0.48003,-0.95821 1.4863,-0.72367 1.9375,0.125 0.46214,1.38453 1.72024,-0.24143 2.28125,0.53125 0.78215,-0.67302 2.4972,-0.66022 2.125,-2.0625 0.24051,-1.49702 1.9217,0.17252 2.4375,-0.96875 0.57394,-0.98337 1.70913,-0.84555 2.09375,0.21875 l 0.75,0.53125 c 0.16896,-0.21314 0.4857,-0.41958 1,-0.59375 1.37597,2.50703 9.22681,1.9247 5.8125,4.5625 4.49112,1.64801 11.03495,-3.98887 11.75,-8.90625 -0.3533,-4.82313 0.77945,-9.28157 6.8125,-8.6875 5.01736,2.95803 7.0407,-0.554 9.8125,-5.125 1.03607,-5.92838 -3.3062,-7.47709 -7.6875,-3.4375 -0.2569,-0.83437 5.97564,-7.88934 2.375,-10.125 -0.51233,-3.17117 -1.47034,-3.91796 -2.8125,-6.21875 0.0437,-6.06457 7.68976,1.49938 7.8125,4.5625 0.0805,4.78564 -2.52634,8.55876 1.125,12.8125 2.31016,0.0883 3.10303,-4.3581 2.90625,-6.96875 3.14349,-4.17281 -0.24547,-6.39545 -0.5625,-10.71875 -2.02543,-3.69814 -2.15693,-13.13501 -8.1875,-10.90625 -5.18482,-0.97746 -10.23654,1.79774 -13.0625,6.03125 -3.20113,-7.10419 6.83972,-9.10679 10.5,-12.78125 3.83918,-4.23202 -6.54122,-12.79976 -3.71875,-6.1875 3.46102,4.11015 2.64433,2.78649 -1.25,1.15625 -1.24825,-4.646 -3.65542,-10.00581 -7.46875,-13.71875 -4.7361,0.24276 2.12561,-10.15884 -5.1875,-6.90625 1.60056,-5.96587 0.0807,-18.0927 -9.0625,-13.3125 -2.79167,-1.56264 -7.15364,-3.05872 -10.84375,-3 z m -1.21875,37.28125 c 1.55038,6.66455 -3.53953,1.72793 0,0 z m -0.875,5.9375 c 0.62264,-0.0207 1.14289,0.66926 1.125,2.46875 3.65084,3.26641 8.59377,-3.60933 11.375,0.46875 -2.04531,3.64633 -6.25929,8.11829 -1.59375,10.125 -4.63176,2.37235 -3.42394,6.27305 -5.46875,8.46875 -3.11965,-0.21612 -5.09142,-3.86921 -9.1875,-1.28125 -6.62389,-4.77576 6.29656,-8.07162 1.875,-14.28125 -1.47881,-2.47102 0.50501,-5.92286 1.875,-5.96875 z m -66.25,17.78125 c 1.4654,-0.0641 2.91076,0.25907 4,1.125 -0.0174,2.38122 0.25941,4.82043 1.9375,7.53125 3.40337,-0.0439 2.92926,10.04005 0.875,2.625 -3.20312,-3.66508 -9.98509,-7.00344 -13.625,-6.53125 0.19331,-2.5396 3.5895,-4.60839 6.8125,-4.75 z m 13.3125,22 c 1.65621,-0.0291 1.48153,2.71021 3.5,3.71875 0.45269,3.91327 4.51397,7.61857 0,5.75 1.33373,-2.1202 -5.40923,-6.74345 -5.40625,-8.6875 0.83532,-0.53782 1.44213,-0.77286 1.90625,-0.78125 z"
     id="path2494"
     style="fill:#5ee25e;fill-opacity:1;stroke:#000000;stroke-width:0.5;stroke-miterlimit:4;stroke-opacity:1;stroke-dasharray:none;display:inline" />
  <path
     d="m 191.28125,579.1875 c -2.4178,0.19227 1.98789,2.25041 2.78125,2.75 -2.74545,0.42532 1.49705,3.86055 3.71875,5.625 -3.61108,1.18814 -3.56044,-0.86021 -5,-2.46875 -2.71664,3.43369 -7.52252,0.75678 -7.96875,3.8125 -4.27049,4.86803 3.48341,8.33954 1.9375,13.8125 3.11517,6.17559 -4.78683,6.5045 -7.5,11.46875 -3.94899,-0.0188 8.47771,-8.02563 0.375,-6.03125 0.58935,-2.59487 8.83109,-6.329 2.5625,-11.03125 -4.4151,-0.974 0.32571,-11.10259 -4.59375,-8.5625 -1.50715,1.71511 -9.18372,3.89675 -4.34375,6.5 1.77796,0.87877 2.1063,2.24402 1.75,-2.34375 1.76356,1.77876 3.25733,6.01239 1.375,10.5 1.34317,-4.28383 -3.99107,-6.78868 -6.5,-8.65625 2.34047,-5.02248 0.72316,-3.87021 -2.59375,-1.65625 1.60305,2.10195 3.45607,7.8375 -1.40625,7.40625 3.8024,-3.7164 -0.66366,-0.54987 0.15625,-3.5 -2.7882,-0.16135 -1.69396,-4.1148 -5.03125,-4.0625 -0.60822,4.5784 -4.63915,5.46516 -7.5625,8.25 0.64699,-2.38764 1.1075,-3.78551 -2.4375,-1.59375 -5.44371,-3.46329 -5.30189,4.42337 -5.96875,5.40625 2.42743,3.28121 -4.51901,2.01912 -3.875,6.1875 -4.77139,4.9e-4 0.72299,4.73373 0.84375,5.59375 -6.58116,-0.40854 -1.04438,7.13221 1.59375,3.90625 4.70231,1.92876 -1.1246,0.90415 -1.625,3.5 6.41668,2.27711 -1.54307,1.20493 -4.375,1.03125 -6.29194,0.974 -1.69793,2.93754 1.65625,5.65625 5.56049,3.6868 -9.23254,-2.67168 -2.875,0.5 6.09964,4.31787 -6.85735,-2.6363 -9.25,1.3125 -2.08009,2.95112 -6.81689,4.30498 -5.1875,7 1.84157,4.24239 9.54994,6.93039 14.9375,4.09375 -1.43559,4.11064 7.97682,-2.49878 3.71875,2.59375 -5.36519,4.683 1.41075,1.06476 3.34375,-1.78125 4.55821,-5.70093 0.92069,4.41589 5.625,-0.0312 3.52163,-4.00801 8.51685,0.33092 4.34375,0.8125 -1.29645,0.81561 -5.65137,7.11123 -6.71875,11.0625 -3.68562,2.05458 -9.75762,0.28144 -9.65625,2.9375 -1.693,4.18613 -5.45467,4.79312 -9.1875,6.5625 -2.46023,6.18891 4.54169,0.50646 7.875,3.78125 -1.07086,1.19604 -5.84531,-0.785 -1.0625,1.96875 7.62617,3.3636 -9.01593,0.56286 -3.125,3.90625 5.17885,3.6784 1.43269,5.29206 -2,1.71875 -2.24009,-6.15091 -8.50755,-1.17353 -12.90625,-2.9375 -3.99669,-4.28728 -10.2484,-2.1366 -10.59375,3.625 -1.00179,3.96755 -1.91603,4.75325 -5.0625,1.4375 -1.604527,-1.33716 0.92236,-5.6625 -1.4375,-5.8125 -0.886977,-0.0824 -4.71871,-6.57856 -7.25,-2.125 -6.3963,-2.33336 -13.85755,0.0483 -21.15625,-3.46875 -5.52968,1.17186 -2.02703,4.75082 0.0625,4.625 2.93478,4.0761 -0.25737,0.26991 -3.09375,1.3125 -0.54811,3.23286 -2.64787,7.28565 -5.6875,3.71875 1.24875,0.47762 6.58737,-2.56103 0.96875,-3.21875 -2.14022,-4.63712 -3.19148,-2.1929 -6.25,0.34375 -0.32597,0.83881 0.02182,2.37302 -1.375,2.09375 3.91271,1.49504 -0.2453,5.49479 -0.9375,9.84375 1.08476,4.88086 3.67703,0.74505 2.59375,-0.46875 0.10535,-2.31411 0.19767,-4.95591 3.125,-4.96875 -2.74049,-5.60816 5.27968,-0.75754 2.8125,0.8125 0.32697,0.4569 -0.18404,2.61909 1.5,3.9375 0.76277,0.92318 -5.75284,3.15265 -0.8125,5.375 2.28234,-0.84621 5.21782,-6.56526 4.34375,-3.34375 0.26883,2.76461 -4.61876,5.31418 -0.875,8.25 2.2386,2.38616 1.48451,4.15198 3.78125,4.28125 0.89594,5.50503 -0.189,1.39735 -2.96875,0 -3.60313,-1.96725 -6.25069,9.9021 -0.84375,7.34375 4.52989,-2.4661 11.7198,-3.65064 15.03125,-1.75 0.5958,2.47349 -1.61074,3.39164 -2.09375,5.21875 4.44939,1.79257 1.74777,4.96709 -3.6875,3.71875 -5.61018,0.13125 -13.67743,0.78628 -11.25,8.46875 3.4312,5.72263 -0.68172,7.26496 -6.4375,6.15625 1.4992,2.8332 1.66389,3.88634 -2.90625,2.9375 1.29596,1.5814 -8.75352,1.64195 -2.59375,2.21875 0.51282,2.9146 4.90108,5.51927 4.1875,7.9375 -2.6416,-1.55722 -8.02591,3.20871 -3.21875,2.90625 3.17976,-1.93518 4.79716,2.04475 8.125,3.1875 2.17053,-0.78848 5.91687,-7.58003 4.6875,-2 3.35269,-2.18336 2.72668,-1.47185 4.125,-0.1875 0.11876,2.69257 -6.46054,2.09889 -5.5,5.96875 1.70789,0.38634 4.93613,2.28125 7.65625,1.90625 1.00824,-2.39701 7.46945,-9.98232 5.125,-3.09375 -0.71556,3.71838 4.20175,-4.85469 3.4375,1.21875 -2.13624,0.27878 -2.96922,6.98899 -1.03125,7.4375 2.0458,-2.32102 2.0525,-5.07375 2.375,-0.0937 8.6349,1.47531 18.92091,-0.4201 27.40625,-2.5625 7.81598,-0.5921 -3.44935,3.68833 1.8125,4.96875 5.86212,-1.9036 -0.50732,1.55597 1.65625,5.09375 -0.4835,1.03371 -3.63671,-3.99192 -7.09375,-1.25 6.40276,1.05344 2.04815,1.49423 -1.875,0.59375 1.85697,1.611 -3.14167,3.75834 -6.59375,0.375 -3.00186,0.99768 -4.28513,6.36106 -6.5625,9.25 0.07305,2.91559 -7.43829,9.00444 -2.8125,8.4375 8.14295,-1.18617 -0.84409,4.21353 -0.65625,7.25 -2.11041,2.67875 -1.63601,10.23912 -6.875,8.1875 -4.53982,5.31309 -9.98619,11.83408 -17.46875,14.96875 3.24635,0.69127 11.02865,-0.10986 11.9375,-3.53125 4.30329,-0.24622 6.64641,-2.2428 6.875,-5 1.28999,5.65305 9.48044,5.11214 14.0625,2.59375 -2.94373,1.75409 -2.99476,5.83383 0.75,2.1875 5.48098,-0.29358 10.12228,-5.57884 11.09375,-10.53125 2.78918,-5.7991 6.63692,1.53144 3.84375,4.46875 2.94373,-1.9559 14.57564,0.51515 7.75,2.15625 -4.70976,-3.82643 -9.214,3.76561 -12.4375,2.875 -4.3992,0.0316 -12.13691,5.86461 -17.15625,3.53125 -3.81781,2.28994 -9.58,-1.19749 -13.125,1.6875 -3.8988,2.87661 4.09582,7.80064 -0.96875,6.03125 -3.80091,2.41921 -8.15584,4.75905 -12.84375,5.15625 0.39107,2.99997 7.8137,1.7675 5.1875,7.59375 -4.82853,4.06129 -0.67852,4.01974 4.03125,4.375 1.06738,4.67067 -4.43274,-0.73631 -5.4375,2.78125 -6.74265,2.83614 -7.15943,-5.16612 -9,-6 1.38291,1.93123 -1.50867,6.50394 -5.5625,6.03125 1.59062,-5.01754 -4.39549,-5.02231 -7.375,-0.71875 -4.89809,-0.15888 -1.54985,6.22581 -5.03125,5.40625 -1.86591,-4.71212 -5.37168,4.73983 -1.9375,6.5625 5.11823,-0.69226 3.00135,-3.26429 8.09375,-1.1875 -1.51709,-2.04965 0.13153,-1.8694 2.59375,-1 2.53377,3.04437 10.9538,-4.55372 13.5,0.65625 -0.84525,-2.12218 3.07212,-4.84601 6.03125,-1.8125 6.85346,-0.96265 -1.82756,3.77183 -3.125,0.59375 -0.87954,2.10787 -2.12719,8.45472 -3.125,3.375 -0.73046,4.49847 -8.04732,3.83785 -11.84375,6.46875 -1.71537,0.83288 -5.46811,3.22156 -4.4375,4.5 6.79581,5.13448 -6.52946,3.44085 -4.75,7.53125 1.9494,0.80131 2.58574,2.81138 2.34375,5.6875 3.03764,-2.03879 8.11611,-10.01075 7.8125,-0.90625 -5.2519,2.38665 3.51984,1.27784 2.40625,4.5625 3.77557,-2.16215 9.85707,-5.94012 12.96875,-5.6875 2.24804,-0.0977 8.03552,-5.00017 14,-5.21875 -0.90737,2.68614 -8.80115,2.45779 -10.4375,6.84375 1.31534,2.86527 -2.42346,0.56533 -3.90625,3.4375 -0.5963,-0.91331 -3.09422,-0.51511 -5.625,1.875 3.31392,1.3411 -0.70726,4.96742 -4.65625,4.0625 -0.15256,1.2069 2.70215,4.65673 -2.46875,4.46875 -2.82547,3.3118 0.78866,0.97385 3.875,1.28125 5.49192,-0.0355 7.5915,-5.68486 14.15625,-4.90625 5.00841,-0.94736 11.66524,-3.004 11.34375,-7.5 0.38361,5.02198 5.95751,0.75894 4.46875,4.5 -3.57232,4.26163 -11.85329,5.11634 -16.25,9.28125 -3.9157,3.27085 -2.29246,3.8901 1.78125,1.3125 1.98668,-0.61628 11.66817,-5.88302 8.3125,-3.09375 -2.57105,5.55437 -12.90301,6.72374 -11.9375,11.59375 1.18416,0.68387 4.96271,0.59471 5.5625,-1.84375 2.51836,-5.50552 3.77686,1.17365 6.25,-2 1.53746,-1.74817 6.98178,-0.85448 6.90625,-4.1875 3.53207,1.75557 -0.09767,5.24673 3.5,7.0625 4.07074,-2.05459 4.620973,-2.74784 7.4375,-1.21875 0.74189,-4.08498 4.0781,-1.58689 5.34375,-5.25 -2.46521,-3.25654 4.39856,0.75753 5.9375,-1.5625 2.59739,4.16688 3.84852,2.46641 6.46875,-0.59375 2.82149,-2.95012 5.27353,1.25064 8.5,0.34375 -1.59709,-4.58136 4.82665,-7.91508 7.1875,-3.21875 0.0755,-0.1954 1.48058,-6.14508 0.96875,-7.21875 2.75838,3.50029 4.36501,-0.30774 8.3125,-1 3.11815,-2.19866 5.0355,-6.72274 2.09375,-10.09375 0.67084,-3.83235 -5.89767,0.40521 -3.75,-3.25 2.77428,2.78138 11.71673,-1.78087 10.34375,1.9375 -8.38694,5.18876 -0.1695,6.51395 3.375,4 6.26163,1.06085 3.23364,-4.07436 8.25,-4.90625 6.25171,0.88864 0.0694,-3.15788 2.90625,-3.09375 0.34734,-7.305 7.72492,0.66687 8.71875,-4.90625 4.93984,-0.29802 6.4628,-3.11797 8.6875,-6.28125 -3.00485,0.44309 -4.87352,-5.42183 -0.6875,-2.375 4.66008,-5.81588 13.85499,-3.07947 19.53125,-5.15625 3.12312,-0.4352 1.44166,-2.19474 4.125,-1.6875 -3.21703,3.49584 3.45261,3.77628 5,0.5 1.16875,-2.04175 0.21226,-5.56304 -0.875,-9.5 1.00129,1.14029 5.34972,6.12372 4.5,9.71875 -4.52541,5.33677 2.40297,-0.66992 3.96875,-1.9375 0.21516,-3.57577 -0.84828,-3.33507 3.09375,-6.28125 -1.27906,3.70999 -2.42472,4.78337 2.65625,3.59375 4.62131,1.93073 8.18943,4.60505 12.125,0.5625 -1.51212,2.99652 4.50321,-0.95574 3.53125,1.5 1.81175,2.98318 6.26284,-6.00445 1,-6.75 -0.58834,-1.10821 -0.39356,-2.22106 0,-3.3125 -0.80748,1.24045 -4.02789,1.0919 -3.125,-2.8125 3.09082,-1.44915 4.46168,1.62297 3.96875,-4 3.69009,-6.46521 10.48801,-12.38282 6.90625,-20.40625 3.16485,-5.06687 3.35696,-10.35779 5.6875,-15.625 1.81126,-2.82875 7.47771,-9.29329 3.5625,-11.65625 -0.39554,-6.41145 0.54781,-13.28741 -3.1875,-18.84375 1.62988,-6.1677 -3.4638,-6.37654 -5.96875,-11.0625 1.31534,-5.01162 6.87768,-0.77043 8.4375,-2.84375 -0.13814,-0.72631 -1.0833,-0.71694 -1.65625,-0.84375 -5.38309,-2.09701 -0.41592,-8.7295 0.28125,-13.09375 -2.60582,-4.52364 -8.94099,-7.22377 -8.65625,-14.25 1.60453,-5.14978 -0.35823,-6.46206 0.25,-11.09375 -4.34951,-0.57039 -8.70598,-5.27211 -6.125,-10.75 0.69569,-6.89993 7.87924,3.02134 12.1875,-1.1875 1.14092,-3.02364 -7.55103,-5.9357 -6.1875,-7.65625 l -0.75,-0.53125 c -0.38462,-1.0643 -1.51981,-1.20212 -2.09375,-0.21875 -0.5158,1.14127 -2.19699,-0.52827 -2.4375,0.96875 0.3722,1.40228 -1.34285,1.38948 -2.125,2.0625 -0.56101,-0.77268 -1.81911,0.85328 -2.28125,-0.53125 -0.4512,-0.84867 -1.45747,-1.08321 -1.9375,-0.125 -0.61617,0.8615 -1.44853,1.3125 -2.5,0.9375 -0.87159,0.45691 -2.14979,0.31415 -2.71875,1.1875 -1.86394,0.44901 -1.97171,-2.01119 -3.09375,-2.90625 -0.84923,-1.62728 0.15348,-3.25101 0.875,-4.65625 0.3061,-1.54439 -0.24958,-3.527 -1.59375,-4.40625 -1.02215,-0.25017 -2.60319,-1.9536 -3.15625,-0.21875 -0.5968,1.17334 -1.31962,-0.69161 -2.0625,-0.90625 -1.82766,-1.02976 -2.94954,-3.04673 -2.875,-5.125 -0.51928,-1.01101 -2.09978,-1.95774 -1.21875,-3.25 -0.45319,-1.30409 -0.53394,-3.15034 -1.8125,-3.90625 -1.25719,0.17813 -0.57524,-1.66646 -1.5,-2.1875 -0.96153,-0.56348 -1.3953,-1.79409 -2.25,-2.34375 -1.48976,0.27335 -2.46117,-2.05064 -3.9375,-1.21875 -0.88799,1.78616 -2.41645,3.1214 -3.375,4.875 -0.79308,1.06479 -1.8344,1.97993 -3.1875,2.21875 -0.0333,1.04455 -0.75601,1.65741 -1.5625,2.25 -0.94663,1.25673 2.15013,0.88341 1.40625,2.375 0.60972,0.67697 1.60177,1.42797 1,2.53125 -0.0666,0.79193 0.59764,2.25822 -0.75,2.40625 -0.96103,-0.11201 -1.56431,0.51974 -2.5,0.40625 -0.10336,1.06973 -0.50798,2.0625 -1.59375,2.4375 -0.1451,0.95772 0.88484,2.09246 -0.1875,2.875 -0.20423,1.25032 -1.05298,2.69901 -2.5,2.53125 -0.98936,0.9597 -1.54581,-0.12995 -2.28125,-0.6875 -0.0934,-1.62729 -1.63283,-0.14211 -2.53125,-0.65625 -1.60902,-0.48898 0.53114,-0.91811 0.3125,-1.9375 -0.37418,-1.28041 -1.78252,-0.23717 -2.1875,0.5 -1.05495,0.76677 -1.52482,2.3023 -2.90625,2.53125 -0.94861,-0.42928 -1.81801,-1.08815 -2.90625,-0.59375 -1.3382,0.17516 -1.38878,-1.85328 -2.84375,-1.5 -1.15484,-0.83238 -0.48546,-2.72221 -1.96875,-3.375 -1.15781,1.12351 -1.22404,-0.56776 -1.875,-1.1875 -2.64161,-0.57286 -5.53121,-0.35856 -8.0625,-1.1875 -0.9829,-1.93468 -0.0938,-4.60463 -1.75,-6.1875 -1.89175,-0.27631 -3.02848,-1.98126 -4.03125,-3.40625 -0.41195,-1.0717 -0.50428,-2.55312 -2,-2.5625 -2.10195,-0.5462 -3.08495,-2.70742 -4.40625,-4.21875 -0.6445,-0.99423 -1.58187,-1.80378 -2.40625,-2.59375 1.44353,-0.55163 -0.8268,-1.48159 -0.3125,-2.03125 1.38392,-0.19934 2.80874,-0.53357 3.53125,-1.8125 1.12751,0.20181 2.28198,-0.59607 1.875,-1.875 0.12472,-1.19061 1.54112,-1.8686 2.40625,-2.625 0.85371,-1.21627 1.27086,-0.0577 2.09375,0.28125 1.68206,-0.19884 3.36409,0.0934 5.03125,-0.15625 -0.12622,-0.95969 1.7284,-0.68537 1.875,-1.78125 1.03308,-2.26823 3.49268,-2.96104 5.375,-4.3125 0.85519,-0.37845 0.0375,-2.52005 -0.6875,-1.25 -1.08278,1.19012 -1.85009,-0.77598 -3.03125,-0.8125 -1.18813,-0.62614 -2.57711,-0.58438 -3.84375,-0.40625 -0.39554,-1.57301 -1.91076,-2.2648 -3,-3.28125 0.75333,-0.72679 0.51936,-1.87846 1.625,-2.4375 0.60227,-0.95376 0.41434,-3.10461 2,-3.1875 1.70641,0.15592 2.49606,2.05643 3.875,2.78125 1.63982,1.10525 2.63525,-1.16531 4.125,-1.46875 1.08178,-0.52106 1.76831,-2.34851 3.1875,-1.46875 1.08924,0.0296 2.2115,-0.3125 3.21875,0.34375 1.7223,0.2171 0.79322,-1.84574 1.3125,-2.78125 0.41741,-1.3564 0.44329,-3.12189 1.09375,-4.21875 1.07333,-0.49983 1.83287,-1.34689 1.8125,-2.59375 1.17918,-0.84522 1.50822,-2.46482 1.625,-3.78125 -0.52326,-1.19061 0.12164,-2.48274 0.0625,-3.71875 0.66835,-0.66512 1.52556,-1.15165 1.65625,-2.25 -0.96798,-0.79686 1.39209,-1.68093 -0.40625,-2.125 -0.29318,-0.86397 1.01893,-1.5334 1.25,-2.40625 0.81594,-1.06281 1.38331,-3.06907 3.125,-2.4375 0.89594,-0.91874 1.5754,0.56759 2.40625,-0.34375 0.35827,-0.29309 0.83099,-0.59523 1.3125,-0.5 l 0.625,-0.53125 c -1.35707,-3.93301 6.79686,-9.65036 11.125,-11.8125 7.84282,-1.74867 1.32006,-6.59589 -2.375,-6.15625 -5.4934,-2.96543 -8.02672,-9.44523 -15.59375,-9.21875 -0.22495,-0.005 -0.43256,-0.0128 -0.59375,0 z m -42.15625,9.21875 c -1.04994,0.0631 -1.26638,1.28752 2.1875,1.59375 -0.64028,-1.25599 -1.55754,-1.63159 -2.1875,-1.59375 z m 2.8125,7.40625 c -0.53609,0.008 0.24153,2.377 1.03125,1 -0.51431,-0.7511 -0.85255,-1.00261 -1.03125,-1 z m -9.125,7.875 c -0.50842,0.053 -0.44659,2.10883 0.6875,0.8125 -0.2738,-0.6259 -0.51803,-0.83018 -0.6875,-0.8125 z m 41.8125,0.9375 c -1.10204,0.30831 1.15593,5.02291 2.375,1.625 -1.28192,-1.33962 -2.00765,-1.72777 -2.375,-1.625 z m -44.5625,3.25 c -1.78044,-0.25806 1.59411,5.50207 0,0 z m -5.34375,2.46875 c -3.74094,0.10579 2.09771,8.18162 2.03125,1.78125 0.5973,-1.03913 -1.45549,-0.87632 -1.65625,-1.78125 -0.14117,-0.014 -0.25432,-0.003 -0.375,0 z m 3.90625,4.75 c -0.95592,0.0823 1.30851,2.61915 0.625,0.125 -0.28598,-0.11083 -0.48844,-0.13676 -0.625,-0.125 z m -6.21875,55.9375 c -0.47227,-0.0174 -0.12637,2.26839 0.46875,0.46875 -0.20246,-0.32621 -0.35977,-0.46473 -0.46875,-0.46875 z m 6.96875,3.53125 c -0.65693,1.0781 5.44489,-1.13977 5.46875,0.9375 -1.85251,2.19027 -8.00253,1.44865 -5.46875,-0.9375 z m -36.96875,3.28125 c -0.63096,0.23761 2.70857,3.05923 2,0.78125 -0.95985,-0.52179 -1.51831,-0.74691 -1.8125,-0.78125 -0.0797,-0.009 -0.14544,-0.0158 -0.1875,0 z M 55.3125,678.6875 c -0.790402,0.0793 0.87219,1.66398 0.5,0.0937 -0.226221,-0.0626 -0.387085,-0.10508 -0.5,-0.0937 z M 71.71875,679 c 0.74836,-0.002 1.61903,0.29292 2.1875,0.625 0.73345,5.16802 -3.31483,1.54571 -2.84375,-0.5 0.21069,-0.0666 0.4068,-0.12352 0.65625,-0.125 z m 85.46875,4.125 c 0.61569,-10e-4 1.53427,0.11958 2.90625,0.40625 0.61668,3.11345 -2.33093,12.25978 -2.84375,4.75 0.56052,-2.69355 -2.73194,-5.14835 -0.0625,-5.15625 z m -105.09375,1.59375 c -2.2893,0.57927 1.36203,2.64865 0,0 z m -1.15625,1.8125 c -1.186979,-0.0229 -1.384104,2.08828 0.5625,0.15625 -0.206779,-0.10849 -0.392932,-0.15298 -0.5625,-0.15625 z m 46.3125,1.875 c 1.0301,-0.0498 2.599583,0.84394 3.5,2.65625 -3.773087,3.44404 5.07573,5.31975 -0.40625,6.875 -3.766617,-0.004 -4.69162,-6.73913 -2.65625,-5.625 -2.07313,-2.56674 -1.60526,-3.84999 -0.4375,-3.90625 z M 52.65625,690 c -0.660764,0.22871 -0.223266,2.38119 0.625,0.21875 -0.280538,-0.2299 -0.472516,-0.27153 -0.625,-0.21875 z m 95.9375,4.3125 c 0.52524,0.006 1.22907,0.5084 2.125,1.8125 l -0.25,0.125 -0.0625,0.375 c -3.16685,3.71887 -3.69183,-2.33323 -1.8125,-2.3125 z m -89.75,0.21875 c -1.65224,3.58022 -6.29564,-0.61015 -7.125,2.5625 -5.83378,1.23452 -0.77651,3.13881 2.6875,2.5625 4.72069,-1.70722 4.16446,1.67882 5.125,4.34375 3.74128,3.71887 5.80162,1.85701 5.78125,-2.84375 -3.23939,-0.51957 0.28768,-3.16039 -1.65625,-5.625 -0.49096,-1.9189 -3.96774,1.20901 -4.8125,-1 z m 7.15625,2 c -0.580245,0.1131 0.724967,1.5694 0.75,0.1875 -0.372313,-0.16838 -0.616097,-0.2136 -0.75,-0.1875 z m 2.03125,1.0625 c -0.734706,0.13228 0.889196,2.64661 0.46875,0.0937 -0.214232,-0.1009 -0.363792,-0.11265 -0.46875,-0.0937 z m 34.625,0 c 0.48102,-0.0814 1.01827,0.55266 1.34375,2.625 -3.4953,2.45869 -2.57312,-2.42072 -1.34375,-2.625 z M 139,698.71875 c 0.37816,-0.0173 0.90447,0.11825 1.625,0.53125 0.60077,-0.33404 0.79854,0.40116 0.28125,0.65625 -1.45496,2.76066 -1.32383,5.41311 -4.15625,2.40625 1.59013,-0.16629 0.61217,-3.51974 2.25,-3.59375 z M 78.375,709.375 c -0.499464,0.15 -0.150594,1.88929 0.46875,0.21875 -0.215878,-0.19493 -0.353489,-0.25337 -0.46875,-0.21875 z m 1.21875,0.71875 c -0.612008,0.0556 0.918011,1.47774 0.40625,0.0625 -0.187026,-0.0606 -0.31882,-0.0705 -0.40625,-0.0625 z m 116.3125,1.03125 c 0.4363,0.0903 1.68065,0.28618 1.34375,1.03125 -1.5787,4.6075 -7.75595,1.93713 -1.34375,-1.03125 z m -134.25,0.59375 c -3.061131,0.13166 -2.100242,5.09729 2.28125,1.34375 1.13496,-0.9138 -0.46482,-0.34952 -0.71875,-1.0625 -0.603008,-0.21698 -1.125196,-0.30006 -1.5625,-0.28125 z m 36.125,5.75 c 0.52077,0.0252 1.63118,3.23831 2.0625,3.28125 0.15852,-0.68438 1.33713,-1.05888 1.15625,0 -1.634357,5.56325 -2.66033,2.60325 -3.4375,-0.75 -0.12622,-1.89915 -0.0193,-2.5426 0.21875,-2.53125 z m -38.375,2.5625 c -0.887835,0.002 1.77244,2.5871 0.625,0.1875 -0.292809,-0.12693 -0.498166,-0.18772 -0.625,-0.1875 z M 56,720.71875 c -1.368795,0.28522 -1.132434,3.65918 1.125,0.375 -0.313306,-0.23271 -0.602538,-0.34939 -0.84375,-0.375 -0.10553,-0.0112 -0.189997,-0.019 -0.28125,0 z m 40.09375,2.375 c 0.18336,-10e-4 0.35975,0.0272 0.5625,0.0937 0.75282,3.7095 0.14517,7.30924 -1.15625,9.6875 -3.00733,2.90769 -7.54419,-3.16513 -6.6875,-2.5 3.75519,-0.0212 4.52933,-7.25608 7.28125,-7.28125 z m 95.9375,0.96875 c 0.32697,-0.0163 0.71952,0.10463 1.125,0.375 2.82199,3.30292 3.97147,6.04782 -0.34375,2.0625 -2.97006,1.17236 -2.5468,-2.34967 -0.78125,-2.4375 z m -32.1875,0.3125 c 0.28821,0.0133 0.65001,0.13552 1.09375,0.4375 -1.19707,3.18597 1.40877,8.49163 3.0625,9.53125 2.13823,-1.30656 4.8833,-1.60804 4.125,0.375 -5.12271,1.83008 -1.32721,6.60674 -3.09375,6.90625 -3.77656,1.28485 -3.07171,-2.0755 -3.75,-2.75 0.77568,-4.66722 -1.00637,-4.9071 -3,-7.40625 0.93321,-1.02284 -0.45498,-7.18898 1.5625,-7.09375 z m -107.875,2.4375 c -0.345807,0.0305 -0.6715,0.32762 -0.8125,0.6875 -6.15132,-0.71496 1.9523,4.15439 1.4375,-0.40625 -0.188767,-0.20557 -0.417516,-0.29957 -0.625,-0.28125 z M 55,727.71875 c -0.349953,0.10492 -0.269222,1.1039 0.5,0.28125 -0.194792,-0.27051 -0.383349,-0.31622 -0.5,-0.28125 z m -7.90625,1.46875 c -1.110786,0.0971 1.184483,2.03615 0.6875,0.0937 -0.316535,-0.0777 -0.528816,-0.10762 -0.6875,-0.0937 z m 144.28125,1.53125 c 5.76075,6.98873 -5.00692,0.24079 0,0 z M 53.40625,735.75 c -0.473496,0.0267 -0.906581,0.59642 0.5,0.75 0.09186,-0.59191 -0.215902,-0.76601 -0.5,-0.75 z m 44.1875,0.28125 c 2.44085,-0.0276 3.59269,1.1752 3.625,4.375 -1.645787,4.25323 7.50291,4.10116 8.09375,5.3125 -5.18034,2.3225 3.9973,8.70855 -3.40625,8.65625 -3.44065,-3.80275 1.91833,-8.89737 -4.59375,-9.09375 -4.235217,-0.0247 -6.9046,-5.79885 -13.125,-5.84375 1.2905,-3.10161 5.76179,1.25226 3.59375,-2.15625 2.4165,-0.74998 4.34809,-1.23322 5.8125,-1.25 z M 191.75,739.375 c 0.15621,-0.0115 0.29402,-0.004 0.46875,0 0.18038,0.004 0.36174,0.009 0.5625,0.0312 -2.01461,7.87402 -5.87383,0.32598 -1.03125,-0.0312 z m -125.1875,6.59375 c -2.00704,0.70065 1.07283,4.96622 0,0 z m 2.0625,8.0625 c -0.356866,0.25877 1.677076,3.94454 0.6875,0.5 -0.404831,-0.43473 -0.605146,-0.55972 -0.6875,-0.5 z m 9.59375,0.53125 c -1.531395,0.0992 -3.777478,2.4078 1,0.875 -0.06833,-0.67512 -0.489535,-0.90808 -1,-0.875 z m 0.3125,1.875 c -0.07519,0.01 -0.156333,0.0513 -0.25,0.0937 -6.44798,2.40885 2.95299,7.33774 0.65625,0.96875 0.226529,-0.4434 0.120078,-1.13084 -0.40625,-1.0625 z m -2.96875,2.875 c -2.77329,-0.006 0.1287,3.36115 0,0 z m -5.09375,7.9375 c 1.20055,-0.0301 8.0543,6.75917 10.15625,3.53125 0.26038,-0.6069 -0.53859,-1.05838 -0.875,-0.46875 -2.16556,-1.2508 -5.46046,-2.9791 -9.28125,-3.0625 z m 11.625,4.65625 c -2.470907,0.32756 -0.359778,5.06405 1.3125,0.15625 -0.27203,-0.082 -0.529319,-0.13332 -0.75,-0.15625 -0.206889,-0.0215 -0.397773,-0.0218 -0.5625,0 z m 69.46875,1.0625 c 0.081,-0.007 0.14322,-0.003 0.21875,0 0.52723,0.0148 0.93971,0.28126 1.09375,1.125 -6.00671,1.50689 -6.11773,7.32999 -4.90625,11.1875 -2.71415,1.25377 -0.53223,3.55213 -5.5625,2.25 -0.63258,2.42218 -4.69723,9.92954 -3.96875,3.5625 4.47373,-3.97495 -6.10087,-2.88951 0.6875,-5.4375 4.84791,0.8758 7.18169,-2.48804 4.3125,-6.5 4.04936,-0.1125 2.03872,-3.55381 4.25,-5.75 1.25968,0.55312 2.79918,-0.33734 3.875,-0.4375 z m -66.75,1.125 c -1.416493,-0.008 -0.677392,4.36926 1.34375,0.84375 -0.565926,-0.62226 -1.016867,-0.84184 -1.34375,-0.84375 z m 0.21875,20.375 c -0.589893,0.18367 -0.812137,1.75529 0.65625,0.4375 -0.232928,-0.40558 -0.459619,-0.49872 -0.65625,-0.4375 z M 241.875,834.75 c -0.0586,0.1342 -0.13433,0.29195 -0.1875,0.4375 0.0815,-0.13371 0.16862,-0.27714 0.1875,-0.4375 z M 36.03125,851.8125 c -0.14145,0.0239 -0.274003,0.0803 -0.375,0.21875 -4.10055,2.47547 -2.07171,3.68664 0.875,0.625 0.380512,-0.54252 -0.07565,-0.91545 -0.5,-0.84375 z M 83,855.59375 c 0.04572,-0.0103 0.07233,-0.003 0.125,0 0.46958,0.0262 1.24806,0.49245 2.34375,1.6875 0.42934,0.4653 2.01133,0.44326 1.5,1.34375 -3.40784,2.25342 -5.37502,-2.81365 -3.96875,-3.03125 z m -52.15625,1.09375 c -0.957712,0.029 1.884566,2.03933 0.65625,0.125 -0.315354,-0.094 -0.519434,-0.12915 -0.65625,-0.125 z m 13.34375,9.71875 c -6.33418,3.43121 -0.54521,4.22216 2.84375,0.65625 -0.05168,-0.597 -1.77489,-0.50773 -2.84375,-0.65625 z m 104.1875,4.75 c -2.13239,-0.15769 -2.658,4.70829 1.6875,1.0625 -0.62397,-0.74031 -1.19541,-1.02611 -1.6875,-1.0625 z m -99.3125,10.875 c -0.919531,-0.0701 -0.201339,2.12297 0.5,0.1875 -0.20299,-0.12101 -0.368638,-0.17749 -0.5,-0.1875 z m 38.0625,2.40625 c -2.111546,-0.19364 -2.906431,3.80593 0.4375,0.0937 -0.151652,-0.0538 -0.29673,-0.0808 -0.4375,-0.0937 z M 72,889.0625 c -0.633966,0.0909 -2.228223,1.09498 -2.96875,0.34375 -7.27534,0.80477 1.16897,3.7192 3.21875,-0.0312 0.06907,-0.26694 -0.03868,-0.34278 -0.25,-0.3125 z m -19.6875,2.71875 c -2.016145,0.36212 -4.691011,4.72828 1.1875,0.53125 -0.28026,-0.49931 -0.722236,-0.61482 -1.1875,-0.53125 z M 88.40625,898.75 c -0.495486,0.0737 -1.160412,1.3828 0.34375,0.46875 -0.04522,-0.37672 -0.178588,-0.49333 -0.34375,-0.46875 z M 87,899.46875 c -2.37277,-0.0306 0.19777,1.70673 0,0 z m -3.03125,0.75 c -0.599515,-0.31598 -5.901874,5.76597 -0.0625,0.59375 0.153236,-0.35699 0.148145,-0.54861 0.0625,-0.59375 z m 5.4375,0.1875 c -0.630097,0.14944 -1.078925,1.78597 0.625,0.5 -0.173547,-0.44876 -0.414968,-0.54981 -0.625,-0.5 z m 1.53125,1.3125 c -1.495896,0.0272 -1.556176,4.17078 0.75,0.28125 -0.268396,-0.19928 -0.536301,-0.28514 -0.75,-0.28125 z M 85.46875,902.25 c -0.419794,0.13796 -0.183211,2.12178 0.40625,0.28125 -0.169386,-0.23249 -0.309375,-0.31309 -0.40625,-0.28125 z m 1.8125,2.03125 c -1.793776,0.25462 -3.316105,4.29568 1.21875,0.5625 -0.37101,-0.48793 -0.804802,-0.62126 -1.21875,-0.5625 z"
     id="path2500"
     style="fill:#5ee25e;fill-opacity:1;stroke:#000000;stroke-width:0.5;stroke-miterlimit:4;stroke-opacity:1;stroke-dasharray:none;display:inline" />
  <path
     d="m 450.4375,1037.9062 c -0.0665,0.01 -0.10203,0.035 -0.125,0.125 -5.57668,1.4393 1.4499,2.1391 0.5625,-0.125 -0.0113,0.1397 -0.27123,-0.016 -0.4375,0 z m -17.0625,17.1563 c -2.47977,-0.1216 -6.37391,3.9154 -7.46875,5.3125 5.41092,2.4848 7.4367,0.012 8.4375,-5 -0.28349,-0.2076 -0.6145,-0.2951 -0.96875,-0.3125 z m 3.40625,1.6563 c -0.57265,0.031 0.54326,2.7339 0.375,0.1874 -0.15852,-0.1268 -0.29319,-0.192 -0.375,-0.1874 z m 4.75,2.8437 c -1.28667,-0.1087 -0.58864,5.2168 0.6875,0.4375 -0.2684,-0.282 -0.50369,-0.422 -0.6875,-0.4375 z m 6.90625,14 c -2.34769,0.03 -0.3838,5.9764 0.5625,6 2.29923,1.578 1.5814,-2.35 4.625,-0.625 4.62082,5.2415 7.17472,-4.5811 1.53125,-4.9063 -1.62739,0.252 -3.35631,-1.0643 -4.9375,0.1876 -0.76471,-0.4753 -1.34649,-0.6618 -1.78125,-0.6563 z"
     id="line396"
     style="fill:#ffffff;fill-opacity:1;stroke:#000000;stroke-width:0.5;stroke-miterlimit:4;stroke-opacity:1;stroke-dasharray:none;display:inline" />
  <path
     d="m 518.5,67.4375 c -1.97894,0.277816 -4.24854,9.485483 -3.4375,3.875 2.38619,-3.804726 -0.61791,-5.103237 -1.8125,-1 -1.52454,2.589931 -0.88828,8.990793 -2.34375,10.0625 -1.52752,5.236609 5.06512,2.899501 6.65625,3.03125 -2.13077,-3.210654 1.66648,-6.831438 0.9375,-8.8125 1.07533,-2.378259 2.5407,-3.327838 1.6875,-6.3125 -0.29815,-0.117437 -1.25673,-0.05363 -1.09375,-0.625 -0.19464,-0.188824 -0.38903,-0.24749 -0.59375,-0.21875 z m -12.46875,11.25 c -0.2903,-0.01127 -0.55862,0.0074 -0.8125,0.03125 -1.69256,0.158713 -2.51757,1.207281 -1.875,4.84375 -0.96302,3.582685 0.69272,10.982481 -1.40625,3.9375 -3.76414,0.376478 -1.99723,12.050046 0.625,15.5 2.23711,-1.8799 0.46056,-2.25706 5.0625,-1.25 -0.7255,-5.057509 2.35104,-7.710404 -2.03125,-11 5.49986,1.986984 -2.70244,-9.674757 2.90625,-2.875 2.39364,-0.461839 -0.16895,-6.841464 0.5625,-8.84375 -1.12951,-0.130168 -2.16036,-0.309928 -3.03125,-0.34375 z m -12.46875,9.875 c -0.30212,-0.05283 -0.55594,0.658949 -0.53125,2.59375 -0.15107,1.283873 -6.76886,-2.227569 -5.09375,3.21875 -5.76969,2.431056 0.9888,6.03488 1.15625,7 -5.06804,1.45162 -6.63266,-10.3295 -7.625,-1.1875 -4.31423,1.1388 -2.28373,5.92891 0.78125,3.28125 3.79196,-1.94751 1.09298,5.52774 4.03125,0.5625 0.98488,-1.24537 0.33304,7.30295 3.28125,6.4375 -1.75362,4.98645 3.2966,1.10991 2.75,4.4375 5.86012,1.66281 1.68509,0.48769 0.53125,2.375 -2.11089,-0.14111 -0.63747,4.47107 -2,5.65625 -2.1601,-6.57673 -5.17756,-0.94637 -5.1875,0.5625 -0.58835,-8.22671 -4.40219,2.89352 -6.40625,-2.6875 -9.14376,-0.36118 -2.2467,13.31918 2.59375,8.59375 1.19211,4.1664 2.71124,-5.80864 3.3125,0.53125 -2.35289,1.17038 -2.7659,4.27256 1.4375,6.46875 1.03011,-3.98531 2.46709,-2.09115 3.40625,-5.34375 4.81015,2.35409 -5.49557,-8.48119 1.5,-3.8125 0.92377,6.74548 1.27845,1.24571 3.96875,0.15625 -1.28652,2.59191 -3.65647,10.5598 -0.1875,5.375 -0.35728,5.54796 0.95311,10.18938 -1.40625,16.4375 -2.50147,4.46294 -0.97628,6.39215 -3.15625,10.75 -1.1603,2.82726 4.29231,2.79327 3.375,4.5 3.52114,3.32512 0.0422,-6.08078 2.5,-8.125 -0.32747,-5.22674 0.66924,-3.09491 2.5625,-4.0625 -3.40288,-4.71113 3.94137,-4.34857 -0.1875,-8.53125 -0.60724,-4.35192 1.48573,-5.13999 3.65625,-7.40625 -2.45177,-2.25342 0.28042,-5.92562 -3.4375,-2.5625 3.43368,-5.72263 -1.14242,-1.59658 0.5625,-4.375 -2.55912,-0.9444 -0.0444,-2.40151 -0.15625,-4.78125 -0.33244,4.77576 6.61694,1.18106 3.34375,-0.78125 -3.35566,0.0824 6.0858,-5.52779 -0.875,-5.25 -5.04072,-2.31263 6.99597,-0.41454 3.40625,-6 -5.83578,3.51805 0.44145,-2.00103 1.5625,-5.375 -3.45108,0.81463 -4.17395,4.50116 -5.65625,5.46875 -0.3528,-3.39173 -3.64307,-0.86679 -3.25,-2.21875 3.2538,-1.44916 4.15338,-1.83952 1.3125,-5.4375 -0.31851,-6.529362 -3.83326,3.06096 -4.15625,-1.34375 -2.13674,2.9072 4.91811,4.39113 -1.75,4.71875 -2.19189,6.09368 -3.34507,1.08286 -0.375,-2 1.65473,-3.95621 -0.44319,-2.63506 -0.59375,-4.0625 -0.15504,-4.278403 0.58485,-3.601207 1.125,-8.28125 1.40717,-1.706293 0.53967,-5.383772 -0.125,-5.5 z m 19.90625,0.34375 c -3.16214,-0.08559 3.17759,10.746177 2.40625,3.96875 2.49751,-0.617266 3.73916,4.466391 4.8125,0 0.41293,-2.520862 -2.70181,-3.605425 -5.25,-3.1875 -0.88768,-0.541153 -1.51702,-0.769023 -1.96875,-0.78125 z m -3.3125,0.75 -0.125,0.09375 c -4.12043,2.885985 2.36509,1.389454 0.125,-0.09375 z m 10.625,19.40625 c -1.21804,0.2017 -1.43982,3.90682 1,0.53125 -0.36383,-0.45971 -0.71891,-0.5778 -1,-0.53125 z m -7.59375,4 c -1.80892,0.0418 -8.58774,7.00602 -2.59375,5.125 1.30638,-1.04259 1.58706,-2.74837 2.84375,-3.84375 0.32936,-0.9209 0.16744,-1.29091 -0.25,-1.28125 z m -25.625,0.4375 c -3.23265,-0.13215 0.99445,7.45794 2.625,1 -1.17435,-0.69294 -2.02636,-0.97553 -2.625,-1 z m -13.34375,3.75 c -3.12311,2.90276 6.58905,1.78731 0.3125,0.125 l -0.3125,-0.125 z m 15.8125,0.28125 c -0.76768,-0.0362 0.051,4.1652 0.8125,0.84375 -0.36514,-0.60468 -0.63534,-0.8354 -0.8125,-0.84375 z m -10.09375,13.6875 c -1.99387,-0.0261 2.6213,2.93093 1.28125,0.21875 -0.59195,-0.15074 -0.99641,-0.21502 -1.28125,-0.21875 z m 24.46875,2.34375 c -1.18169,0.0406 -2.05326,1.17883 -0.90625,3.71875 -0.87407,3.25999 3.85259,5.9575 3.34375,0.84375 1.11526,-2.86788 -0.91819,-4.61475 -2.4375,-4.5625 z m -48.25,1.6875 c -1.77171,0.15695 -2.27558,7.4837 2.0625,2.9375 -0.73966,-2.24664 -1.47193,-2.98982 -2.0625,-2.9375 z m 52.25,0.90625 c -0.48112,0.0461 -1.51084,2.93049 0.1875,1.1875 0.0882,-0.88642 -0.0271,-1.20286 -0.1875,-1.1875 z m -29.15625,58.625 c -0.43263,0.0167 -0.97816,0.18701 -1.125,0.375 -3.41033,4.97955 0.86885,4.07067 1.53125,0.0937 0.34387,-0.3634 0.0264,-0.48546 -0.40625,-0.46875 z m -38.4375,15.6875 c -0.41273,-0.0685 -1.73155,1.12761 -2.34375,1.0625 -2.61676,4.0924 1.85904,3.77002 2.1875,0.0625 0.34101,-0.78546 0.34386,-1.09385 0.15625,-1.125 z m -25.5,1.28125 c -0.44334,0.0307 -0.91002,1.12789 -0.8125,2 -1.53348,5.25536 1.64317,3.90817 1.46875,-0.59375 -0.13137,-1.04117 -0.39025,-1.42466 -0.65625,-1.40625 z m -3.96875,2.46875 c -0.68574,-0.0129 -1.78077,1.42542 -1.6875,2.5625 -6.20498,-0.84917 -1.65484,2.27948 -0.5,5.78125 2.16654,0.74604 2.18932,-3.68711 6.1875,0.96875 -1.51758,4.6682 3.31998,1.50688 1.625,-0.75 -1.49671,-3.61772 -9.28524,-3.33213 -5.09375,-7.5 0.0194,-0.76233 -0.21955,-1.05663 -0.53125,-1.0625 z M 439.25,218.625 c -0.0811,-0.009 -0.18402,0.0101 -0.28125,0.0312 -1.98779,0.43351 -7.11854,6.69852 -7.9375,3.5 5.77018,-4.26952 -4.17242,-2.62182 -1.5,1.625 -4.6089,0.76776 -6.10555,10.31325 -2.8125,4.5625 3.31145,-5.77394 4.16532,1.07971 6.59375,-4.1875 0.79358,5.92641 1.49579,-4.45935 6.09375,-2.40625 0.55054,-2.20619 0.41152,-3.06214 -0.15625,-3.125 z m -17,6.09375 c -0.54343,0.24049 2.30788,3.03259 1.03125,0.34375 -0.57618,-0.31437 -0.90584,-0.39925 -1.03125,-0.34375 z m -1.75,0.125 c -0.64767,-0.0283 -0.93635,1.07618 -0.46875,3.9375 -0.86913,2.55737 -3.18954,1.69429 -0.0937,5.59375 4.21434,2.87118 -0.32167,-4.27602 3.15625,-6.65625 -0.93991,-1.67712 -1.94608,-2.84675 -2.59375,-2.875 z M 418.375,227.5 c -1.04654,0.19074 0.82254,3.99482 0.25,0 -0.0973,-0.0229 -0.18023,-0.0127 -0.25,0 z m -12.03125,2.1875 c -0.10573,-0.004 -0.20661,0.0162 -0.3125,0.0312 -1.8636,0.26477 -3.66709,3.39975 -1.0625,5.15625 3.1574,4.35586 6.68739,0.42529 6.46875,-2.625 1.34167,-2.01708 -2.03012,-1.85114 -3.21875,-0.71875 -0.41319,-1.28888 -1.13488,-1.81622 -1.875,-1.84375 z m 6.53125,3.21875 c -1.90496,0.19025 0.5141,6.59042 1.125,0.96875 l 0.125,-0.34375 -0.15625,-0.28125 c -0.46655,-0.27933 -0.82161,-0.37093 -1.09375,-0.34375 z m 14.5625,0.875 c -0.36543,0.006 -0.77159,0.0365 -1.21875,0.0937 4.21781,3.20572 0.20712,3.53853 -1.0625,7.15625 1.88232,0.87137 3.81162,-5.62558 4.3125,0.4375 4.49709,-0.50427 3.20153,-1.15316 2.84375,-4.03125 1.14739,-1.52515 -1.87616,0.37203 -2.34375,-0.1875 0.64046,-2.31412 0.0267,-3.51362 -2.53125,-3.46875 z M 398.21875,234.75 c -3.93012,0.21443 -7.43542,2.99513 -6.09375,7.875 -1.79734,2.58155 -0.0534,13.38548 3.5,9.65625 2.02244,-2.16362 -0.21237,-4.76793 1.5,-5.625 4.49312,-1.99142 -2.20618,7.53473 2.4375,10.15625 5.12916,-0.04 6.84609,-2.34213 12.21875,-4.1875 -0.98936,5.66292 3.23758,5.51664 6.3125,7.8125 1.39682,-4.93958 6.8704,-2.79743 6.9375,-7.625 -0.33841,-1.23995 -3.22842,-1.47136 -3.375,0.1875 -4.57908,2.39553 -4.26396,-0.98521 -1.15625,-2.40625 -1.53746,-2.17546 -5.52925,2.40209 -5.53125,-0.8125 -1.74766,-3.80621 -3.099,0.90671 -6,-2.375 -0.98042,2.47596 -5.39425,2.97728 -5.46875,0.84375 2.25599,-3.90291 5.23927,-3.35447 6.25,-6.125 -3.72736,-1.02729 -2.37441,-4.4482 -4.9375,-4.875 -1.70821,-1.81645 -4.23568,-2.62866 -6.59375,-2.5 z m 11.65625,2.125 c -2.02403,0.22209 -0.52017,2.97967 2,0.34375 -0.87302,-0.31705 -1.53292,-0.395 -2,-0.34375 z m 0.0312,3.3125 c -0.63501,0.18768 0.92398,2.29477 1.34375,0.5625 -0.57431,-0.38727 -0.9555,-0.53977 -1.1875,-0.5625 -0.0628,-0.006 -0.11392,-0.0125 -0.15625,0 z m 8.53125,0.34375 c -0.62747,0.10875 -0.7981,1.64031 -1.15625,2.28125 -2.69229,-1.5286 -5.02189,0.55052 -3.3125,2.875 5.03674,1.40179 4.66159,-0.10779 5.28125,-4.71875 -0.33479,-0.37055 -0.60334,-0.47375 -0.8125,-0.4375 z M 394.5,254.71875 c -0.91834,0.12216 0.48654,2.26355 1.78125,0.75 -0.91333,-0.62368 -1.47514,-0.79072 -1.78125,-0.75 z m -1.90625,0.9375 c -3.0705,0.0747 -6.93217,5.34387 -2.1875,5.4375 1.73125,4.4728 4.00052,10.99109 10.125,8.5625 5.78262,-2.70046 -1.80133,-2.04457 -3.34375,-1.28125 3.83121,-2.21149 3.35387,-2.62125 2.6875,-5.46875 -1.14836,-2.61658 -2.06455,-3.77946 -4.8125,-5.21875 -0.49692,-1.51269 -1.44525,-2.05617 -2.46875,-2.03125 z m 8.46875,4.40625 c -1.08422,0.0741 2.17615,2.3994 0.75,0.125 -0.3589,-0.10134 -0.59511,-0.13558 -0.75,-0.125 z m 13.28125,1.40625 c -1.97384,0.2018 -3.09434,3.64765 1.875,1.78125 0.85122,-1.43288 -2.33875,0.62531 -0.96875,-1.65625 -0.30163,-0.12847 -0.62427,-0.15383 -0.90625,-0.125 z m -13,1.34375 c -1.92991,-0.0475 1.54442,3.79226 0.46875,0.0625 -0.17957,-0.0411 -0.34009,-0.0593 -0.46875,-0.0625 z m 2.96875,0.25 c -1.74605,0.094 -1.76894,6.39274 1.34375,2.1875 -0.59928,-0.97005 -3.10483,-0.63652 -0.21875,-1.5 -0.43154,-0.51315 -0.80166,-0.70491 -1.125,-0.6875 z m 9.0625,1.0625 c -3.37582,-0.0699 -9.18857,2.18411 -2.53125,1.9375 -3.41132,1.64505 0.52757,2.43195 -0.46875,6.0625 5.27576,6.13018 1.58873,-4.39936 4.6875,-6 0.87131,-1.44108 -0.15303,-1.96821 -1.6875,-2 z m -6.40625,8.5625 c -0.65077,0.134 -1.59164,3.25057 0.375,0.5 -0.0784,-0.3943 -0.22482,-0.53092 -0.375,-0.5 z m -3.65625,5.46875 c -1.11659,0.26743 -0.90204,5.28096 1,0.75 -0.39207,-0.61921 -0.74233,-0.81172 -1,-0.75 z m -12.875,2.1875 c -0.5794,0.0523 -0.9453,0.68604 -1,2.5625 5.98634,4.8103 -1.53579,3.10346 -4.84375,3.53125 -2.96013,-0.17121 -3.35847,-2.77136 -7.90625,-1.65625 -4.97264,5.18527 -10.67791,6.15097 -17.1875,5.15625 -1.30888,-7.18215 -2.39122,3.93646 -6.375,-0.1875 -1.79336,3.4489 -3.99921,0.51846 -5.5625,3.4375 -0.10386,0.15987 -7.12955,-1.92675 -9.03125,3.28125 -0.86065,4.22659 -4.78858,6.43282 -1.78125,0.59375 7.47759,-5.07721 -8.99429,-12.68757 -6.625,-5.03125 -3.85607,2.40836 -4.80123,8.05774 -8.34375,9.03125 2.2391,-4.53597 8.08674,-10.20101 0.875,-12 -2.3191,-5.17937 -0.42316,-0.17664 -3.1875,0.9375 -0.87954,-4.46492 -5.96307,-4.33143 -9.4375,-5.9375 -0.87358,2.0605 0.0223,4.64279 -1.09375,6.6875 -4.46976,3.06214 -5.43941,8.66201 0.375,9.5625 4.14825,3.99221 -4.30611,-0.87397 -3.71875,3.4375 -1.00228,0.51808 6.78604,4.65721 0.46875,2.40625 -3.34623,-3.75291 -4.89574,7.26447 -2.71875,6.90625 -2.48805,3.8363 9.8271,6.7839 8.59375,6.8125 0.7096,3.28268 -0.76436,0.1931 -3.5625,0.125 -3.58673,-3.22101 -4.89483,1.07664 -8.25,0.1875 -3.90427,3.67101 -7.5982,-2.10917 -9.5625,0.5 2.89404,3.07793 3.56537,7.99771 7.8125,8.96875 -1.98368,1.87498 -0.29305,2.05051 -1.75,3.34375 3.65828,4.65636 -2.87905,2.96071 -4.78125,4.0625 -1.74864,-5.31062 -7.23836,-2.06377 -2.90625,1.53125 2.40756,2.66937 6.85466,6.98916 11.59375,8.96875 -2.41302,3.43318 1.53551,5.08309 4.71875,7.65625 2.42594,6.25551 -0.002,0.78731 -3,-0.78125 -2.49055,-4.22216 -7.45757,-1.17637 -9,-5.0625 -5.9938,-0.3972 0.20591,3.1969 2.6875,5.34375 6.82316,3.30736 -1.5061,2.68664 -3.375,-1.125 -5.67428,-5.48825 -3.40699,7.56293 -9.125,1.84375 -0.0477,-4.37018 -5.1532,-7.10059 -5.46875,-1.46875 1.29944,2.42267 5.10268,7.81168 2.3125,8.875 -0.64152,1.35294 -1.66207,2.87692 -3.125,-1.4375 0.0298,-6.01917 -2.78223,-5.93601 -7.53125,-5.375 0.81096,4.14666 -1.80715,13.03206 5.21875,12.71875 4.42205,5.12905 -3.06476,0.30613 -3.75,3.78125 -4.18056,4.59715 2.9503,4.89529 3,9.46875 2.41203,1.65147 2.04105,3.54571 7.40625,2.71875 7.35237,2.86526 -5.87493,0.31484 -3.40625,3.28125 -2.31762,0.43717 -2.96131,-4.3666 -5.1875,-2.96875 -4.65411,-7.66866 -6.90195,4.05071 -5.6875,9.21875 3.71743,0.14555 2.54125,3.25184 2.53125,5.375 -1.21496,6.6917 7.29921,1.94075 9.75,-1.1875 -3.04212,6.52936 5.45066,3.37675 7.8125,-1.15625 1.78889,2.40195 -6.43529,7.44209 -10.46875,7.09375 -7.23608,4.71112 1.76512,6.50888 6.09375,5.46875 1.70989,2.05212 7.67315,4.60543 7.09375,5.3125 -4.73064,-0.28125 -6.56358,-6.6516 -11.53125,-2.6875 0.38213,3.14305 -0.6423,5.0053 -2.625,8.34375 2.93429,1.45557 7.04664,2.36204 8.4375,5.0625 6.67756,-1.91002 1.3227,1.83288 -2.1875,0.34375 -3.41928,-6.52196 -14.8992,1.41996 -9.375,5.6875 5.1719,-2.92299 1.97523,5.58814 7.53125,3.96875 7.2167,-2.48385 0.20361,1.73025 -3,1.1875 -2.66298,-2.58352 -8.45808,-5.82395 -9.15625,0.4375 -1.84504,2.74387 -0.27919,6.28651 -1.71875,6.8125 -6.31928,2.17645 4.547,1.16776 7.40625,1 -5.63551,1.68945 0.64153,4.85784 2.21875,0.6875 2.14021,3.90734 -8.52965,2.12159 -8.59375,5.875 5.38855,1.40574 3.13819,4.30344 -0.375,3.53125 -0.71408,0.11793 -1.45352,4.11345 -4.4375,0.15625 -4.40267,1.36085 -10.89959,0.29215 -13.8125,4.03125 l 0.0312,0 c -0.74537,6.87426 9.81504,3.03407 13.40625,4.40625 4.49958,2.62497 7.81061,-2.63207 11.9375,-2.28125 2.41699,3.18795 12.39428,0.22701 4.34375,2.71875 -4.69636,-2.42316 -8.41464,-1.23696 -12.0625,2.4375 -8.50025,-3.06904 -6.73716,5.76879 -1.125,9.03125 5.39999,1.14078 6.1472,1.32206 9.84375,4.15625 6.49867,0.46085 9.83777,-11.2362 14.875,-12.65625 1.92952,-4.645 6.17687,-4.64643 7.6875,-8.5 0.13466,-1.52564 7.2964,-9.18943 5.75,-5.625 -3.06896,3.8654 -8.79751,10.29535 -0.21875,10.34375 6.27803,-3.56343 0.83619,2.39554 -2.71875,0 -5.98187,0.27385 -5.15476,3.97502 -8.21875,6.46875 -2.54023,2.85095 -4.06418,9.71527 1.34375,6.53125 6.47631,-3.17611 1.55996,0.94722 -1.75,2.21875 -3.79991,-3.6493 -6.62809,6.73645 -3.5,1.75 0.92277,1.65591 2.42487,3.85755 5.34375,3.28125 8.60509,1.26659 -3.59411,0.48455 -5.625,0.46875 -2.91093,5.82624 -7.80091,9.96258 -7.625,17.21875 0.51133,3.2289 3.25242,3.85597 0.21875,7.46875 -3.16187,7.044 0.88871,2.78992 3.21875,-0.90625 1.74069,1.611 -4.08189,7.06762 -0.4375,8.96875 -4.62431,-1.2212 -5.36468,5.87537 -8.375,9.3125 -0.62959,7.04598 1.46519,-0.006 3.46875,-2.5 4.54727,-6.82195 2.06494,2.13491 -2.09375,5.6875 -3.01925,5.51391 1.70441,5.04781 4.1875,1.0625 0.83631,1.38058 -7.16731,8.49068 -2.90625,12.53125 2.86174,4.84731 6.56307,-1.63836 9.3125,-5 -0.35281,4.5562 -7.69701,8.64349 -9.59375,14 -1.89474,5.283 -3.79699,12.52837 -3.03125,19.1875 -1.46242,4.74468 -6.82897,7.98249 -5.09375,14.21875 5.01488,2.92793 17.13063,-1.21835 14.25,-8.4375 -4.0275,-2.31609 -0.38561,-3.47833 0.5625,-7.15625 0.47903,-3.72232 3.34515,-7.99213 2.28125,-10.34375 -2.07015,-5.89038 3.38337,-12.71714 7.875,-15.96875 -3.30151,-7.18511 -6.92624,-12.69286 -6.5625,-20.8125 1.30143,2.23913 5.43446,-0.0709 6.59375,-3.53125 1.68306,-6.81949 10.6135,-7.35091 11.78125,-14.125 0.98489,-0.34934 8.19355,-5.60868 6.75,-2.71875 -6.27704,1.70278 -5.61482,8.33719 -11.0625,10.1875 -4.17112,3.69715 -9.2437,9.83115 -9.1875,15.40625 -1.31882,5.43793 1.63204,10.48078 7.15625,11.4375 -2.09003,-4.26557 -0.57869,-7.26222 0.4375,-11.53125 0.2748,1.74866 8.3183,8.82704 5.0625,1 1.84108,-4.9228 0.85916,7.78635 4.1875,8.1875 3.55246,-1.66676 5.00333,-10.10479 4.25,-11.71875 2.42495,-0.29605 2.07864,-8.31022 0.8125,-11.0625 0.54561,-8.46008 0.35403,6.14202 3.5,-0.28125 0.77518,0.74555 -4.46224,8.40021 -0.3125,11.65625 7.22417,2.07728 0.5947,-3.24001 0.34375,-6.5 3.14797,2.67283 8.35065,10.77056 15.34375,11 4.08514,1.93714 -6.74278,-0.3271 -9.125,-0.375 -7.61871,-6.12673 -11.0898,5.03939 -9.125,11.53125 5.51179,4.5261 -4.84027,9.38359 2.40625,11.84375 1.16875,4.59468 10.16825,3.94581 9,10.46875 0.32299,1.05492 4.54958,5.50711 1.5,9.1875 -6.2184,0.78058 -6.10595,7.1099 -9.84375,10.53125 1.17918,8.18378 -6.28827,12.25221 -9.03125,18.375 -3.705,5.96884 -1.30338,12.13493 1.65625,17.28125 -6.39381,3.04635 -1.64501,-10.57085 -7.96875,-8.21875 -5.90237,6.49137 2.30222,16.21388 6.6875,21 4.46132,2.80852 0.15549,9.72946 6.71875,11.1875 1.24925,-1.11314 -0.30585,-5.76681 -2.09375,-8.46875 -3.26374,-4.8932 -2.03223,-9.33227 4.09375,-11.1875 2.75688,1.58385 6.81769,4.93555 10.59375,6.53125 3.76761,3.3498 6.24466,8.88245 12.3125,8.96875 3.10324,-1.85474 -0.93356,-7.86022 1.59375,-9.28125 -1.5633,-3.10556 -6.48206,-6.17751 -2.625,-9.90625 1.06439,-0.0518 2.80354,6.43963 7,5.53125 3.94802,-5.30274 1.23472,2.16532 3.96875,3.6875 4.01011,4.48515 4.32992,0.54025 5.96875,-3.46875 -1.61399,4.70915 2.65171,8.25653 6.59375,4.25 5.6057,-2.32399 2.77232,-4.07505 4.71875,-7.375 -0.22709,0.88321 2.11263,2.84995 5.71875,-0.375 4.85635,0.89456 8.37762,-0.69513 6.90625,-6.15625 -1.47186,-5.36243 1.75224,-1.12996 3,-3.1875 2.91291,-0.19884 6.80163,0.75919 10.875,1.3125 4.07337,0.5533 7.6412,-0.35031 11.5,-0.96875 3.85884,-0.61845 -0.25087,-0.72805 0.15625,-1.03125 0.40713,-0.3032 1.53374,-4.03125 2.03125,-4.03125 1.4172,0 1.66517,-0.93394 2.8125,-1.21875 0.92381,-0.22933 1.61364,-0.34467 2.28125,-0.875 0.58516,-0.46484 1.56469,-2.62686 2.3125,-2.8125 1.24716,-0.30959 1.5554,-0.93839 2.8125,-1.5625 1.10971,-0.55096 1.87617,-1.00777 2.8125,-1.9375 0.95781,-0.95107 1.86967,-1.93521 2.46875,-3.125 0.45965,-0.91279 0.95589,-1.38688 1.40625,-2.28125 0.43207,-0.85799 0.63007,-1.49587 0.875,-2.46875 0.20289,-0.80596 0.25808,-1.89406 1.0625,-2.09375 0.78437,-0.19471 1.84162,-1.29038 2.65625,-1.9375 0.60291,-0.47895 1.6125,-1.58399 2.28125,-1.75 1.14758,-0.28487 2.16707,-0.73544 3,-1.5625 0.58472,-0.58057 1.59901,-1.9375 2.65625,-1.9375 0.11747,0 0.23865,0.0522 0.34375,0 0.97922,-0.48617 1.64452,-1.8408 2.46875,-2.25 1.0168,-0.50482 1.61857,-0.37262 2.28125,-1.25 0.44071,-0.58344 0.89968,-1.81231 1.78125,-2.25 0.94006,-0.46672 2.28125,-0.96092 2.28125,-2.28125 0,-1.02304 0.26292,-1.92443 0,-2.96875 -0.17362,-0.68964 0.11396,-2.24437 -0.34375,-2.8125 -0.56694,-0.70366 -0.83214,-2.39756 -1.25,-2.8125 -0.59937,-0.59512 -1.96935,-1.63324 -2.46875,-2.625 -0.40359,-0.80159 -0.46851,-1.75511 -0.6875,-2.625 -0.14816,-0.58852 -0.38716,-1.64443 -0.1875,-2.4375 0.28449,-1.12991 0.4973,-1.60434 1.40625,-2.28125 0.91016,-0.6778 1.51292,-1.51834 2.28125,-2.28125 0.52077,-0.51714 0.6301,-1.82198 1.25,-2.4375 0.65737,-0.65276 1.68749,-1.34789 2.28125,-1.9375 0.73201,-0.7268 1.24875,-1.37996 1.78125,-2.4375 0.54571,-1.08369 3.55821,-3.40435 4.9375,-5.59375 -1.58944,-5.06382 -2.79508,-7.72074 -6.03125,-9.59375 -7.35186,1.84637 -12.82438,-9.34454 -19.25,-6.78125 0.40498,-6.7667 -11.38291,-7.68942 -14.1875,-3.28125 0.15454,4.39435 -5.18374,7.16415 -9.53125,7.625 -3.9465,-2.72662 -8.76887,-2.7227 -13.21875,-3.28125 -4.72766,-0.3143 -10.45857,-2.499 -15.90625,-2.5 -7.55064,-1.36379 2.2722,-6.44979 5.6875,-2.125 6.1215,4.86951 10.62584,-2.74276 17.125,-1.75 1.15831,-5.55438 6.84715,-9.71386 11.625,-13.28125 6.10163,3.18549 12.72796,0.13365 17.03125,-5.0625 1.89822,-6.29302 -9.52598,-4.51898 -11.09375,-8.9375 -0.65941,-0.32714 3.27124,-8.12467 -2.53125,-7.78125 -5.68869,1.55081 -11.3069,5.9214 -17.25,8.40625 -4.83698,1.48764 -6.74015,-0.9138 -0.84375,-0.9375 4.58753,-5.80009 11.35541,-8.93256 17.90625,-8.375 3.38449,-2.5258 7.68274,1.72214 8.40625,-3.34375 3.97433,-3.29206 12.69781,-7.11273 10.25,-12.75 3.57829,-3.29108 3.21725,-5.32752 4.34375,-10.125 4.00315,-2.75276 10.05022,-8.26044 11.65625,-14.71875 -2.16804,-7.46241 6.9728,-12.86127 5.8125,-19.625 -2.49601,-10.73474 9.20909,-20.87542 12.6875,-27.3125 3.83023,-2.24406 -0.45107,-5.03769 2.15625,-5.875 -3.31593,-2.55985 -1.90694,-8.66861 -3.75,-10.71875 -3.58972,-4.63613 -6.99312,-7.04705 -12.8125,-7.03125 -3.23343,3.08631 -7.45937,0.95745 -10.78125,0.96875 -5.60471,3.62709 -14.18585,-0.54984 -20.6875,-0.21875 -4.70629,-1.95295 -8.85849,-2.15588 -12.84375,1.09375 -9.16164,1.52318 -19.4851,-10.21846 -26.46875,-0.15625 -5.31552,0.99769 -10.67723,1.52209 -14.5,6.4375 -2.82596,2.91262 -16.11773,-1.16047 -11.28125,3.09375 -2.90845,2.65654 -5.90203,8.64767 -10.5,6.46875 4.68492,-2.97481 -3.29463,-5.92779 2.28125,-4.5625 1.4823,-2.31807 4.83005,-2.2979 5.28125,-5.4375 2.65898,-3.27726 6.91442,-9.05999 0.0937,-5.21875 -4.96567,-1.60508 -9.5493,0.15367 -13.34375,5.5625 -4.94829,6.10452 -4.01222,-0.41517 0.625,-2.75 1.65672,-5.89631 7.86833,-3.09956 11.34375,-7.1875 3.18474,-3.53729 5.95197,-1.89025 5.0625,2.4375 4.51099,-3.1248 8.00083,-9.1476 11.4375,-14.0625 1.28055,-6.34236 -2.06821,1.30576 -4.4375,1.4375 -5.23054,1.92481 -0.74145,-0.0188 -3.875,-1.5 -3.68016,2.28747 -10.06711,1.82002 -12.21875,-2.09375 3.63643,1.29028 9.59993,1.00817 10.03125,-2.96875 -1.02364,-4.10374 1.02543,-7.82124 5.96875,-9.375 2.06866,-4.00209 5.98696,-6.54166 9.96875,-9.53125 6.4112,-3.99025 10.97939,-10.43313 15.3125,-16.53125 7.80953,-2.48336 13.584,-7.70881 15.71875,-15.46875 4.20689,-4.87001 -1.10658,-2.8742 -3.375,-4.5 -1.5787,-5.55043 5.4867,-9.48378 5.4375,-14.75 -3.02671,-1.62087 -7.61744,0.28287 -11.03125,-1.375 -2.9343,2.37974 -5.83219,-1.50045 -7.3125,-1.40625 z m -142.75,15.28125 c -2.15065,4.94402 -11.49539,7.45073 -13.8125,13.96875 -2.42594,1.78418 -7.87832,0.89905 -10.1875,4.59375 -6.51258,1.51183 -2.21644,9.06781 1.5,12.03125 0.0561,3.21855 -7.53085,-3.62527 -8.3125,1.28125 -5.80745,-1.76445 0.16349,-2.48293 -3.34375,-5.0625 -0.88599,1.38205 -5.55685,-3.35865 -5.65625,2.15625 4.99351,3.16032 -2.09335,1.08687 -2.03125,3.4375 -2.6247,3.44699 -0.53123,8.0992 1.96875,10.25 -1.71582,1.47926 4.43486,0.94065 0.0625,2.84375 -4.07968,0.91627 -3.7398,3.82091 0.28125,6.34375 4.01608,0.036 9.2974,1.64099 10.8125,4.9375 -1.92307,0.35625 -9.86839,-0.98154 -5.21875,2.3125 0.19728,0.59752 -4.2311,2.04263 -5.375,3.8125 -2.40705,4.82116 -1.26993,0.48223 -5.125,-0.15625 0.96004,3.19732 6.9072,8.81186 9.15625,10.09375 2.5283,-2.61559 3.80742,-8.1347 6.9375,-7.625 0.72549,-0.2921 4.64662,-1.67323 1.96875,-4.3125 -5.31601,-5.04863 4.34042,-0.9247 5.09375,-3.28125 -1.2433,-2.57808 -5.5985,-9.69889 -1.25,-13.25 -1.07284,2.67184 -0.56269,10.16366 4.28125,11 -1.57174,-6.4292 2.68556,3.59107 3.5,-1.21875 2.74248,0.84473 7.60015,-5.72518 0.9375,-7.3125 -0.21267,-1.48764 9.98185,2.96143 8.46875,-4.125 -0.39506,-6.65914 -2.48329,-3.113 -7.96875,-2.90625 1.4356,-1.56511 11.19275,-2.89167 7.6875,-7.8125 -2.02145,-4.60948 0.74599,-1.61135 2.71875,-2.125 3.28362,1.18815 6.95277,1.59912 8.96875,-2.53125 0.84526,-8.90861 -5.63321,4.6289 -10.21875,0.3125 0.079,-2.71576 4.68778,-7.58442 8.15625,-10.6875 1.20602,-0.64145 -3.51592,-4.87306 0.6875,-7.5 -0.70364,-3.98975 -0.9984,-6.79542 -4.6875,-9.46875 z m 54.40625,11.4375 c -0.63473,-0.0952 -2.55999,2.2485 0,1.125 0.2938,-0.79341 0.21158,-1.09327 0,-1.125 z m 50.6875,8.34375 c 0.71705,-0.0143 1.94466,0.57831 3.21875,2.4375 l -0.5,-0.0312 c -3.69259,-0.61775 -3.91433,-2.38207 -2.71875,-2.40625 z M 217.03125,320 c -1.22158,0.0323 4.2496,7.64815 4.5625,3.4375 -0.87059,-1.06084 -2.06869,-1.28471 -2.5,-2.03125 -1.14191,-1.03784 -1.7806,-1.4137 -2.0625,-1.40625 z m 127.40625,1.34375 c -5.84026,7.2389 -3.16238,1.04605 0,0 z m -126.90625,2.1875 c -0.32765,0.10966 -0.42539,0.54606 0.71875,1 0.16647,-0.89259 -0.3911,-1.10966 -0.71875,-1 z m 107.1875,4.15625 c 5.89193,3.30638 11.81901,7.42244 15.40625,13.1875 -0.68525,0.32072 -1.0911,-0.69096 -1.46875,-1.0625 -3.35866,-4.14617 -14.10149,-11.80921 -13.9375,-12.125 z m -121.375,12.09375 c -1.71546,0.043 -4.00853,3.35879 1.21875,2.65625 0.21321,-2.01236 -0.43899,-2.67581 -1.21875,-2.65625 z m 86.1875,1.125 c -0.94239,-0.0743 -2.18355,1.96481 0.6875,1.8125 0.11523,-1.32066 -0.25914,-1.77874 -0.6875,-1.8125 z m -1.25,4.1875 c -0.49387,0.0883 -0.80824,0.41267 0.5625,0.6875 0.60474,-0.62811 -0.0686,-0.77582 -0.5625,-0.6875 z m -3.46875,1.3125 c -0.75446,0.0832 -1.63437,0.98519 0.53125,1.09375 0.33691,-0.91257 -0.0786,-1.14367 -0.53125,-1.09375 z m 14.125,1.40625 c -0.29603,0.0294 -0.43496,0.29894 0.125,0.96875 1.28143,-0.4154 0.36838,-1.01784 -0.125,-0.96875 z m 55.28125,0 c 0.8388,-0.14112 8.36873,3.26956 3.25,2.28125 -2.87714,-1.62876 -3.57846,-2.22452 -3.25,-2.28125 z M 210.5,350.84375 c -0.23206,0.0328 -0.53747,0.2183 -0.875,0.625 -5.0273,2.83911 -1.08999,4.02613 1.8125,1.46875 0.005,-0.90665 -0.24132,-2.1923 -0.9375,-2.09375 z m 130.125,0.96875 c 0.23505,0.004 0.88978,0.62617 2.0625,2.25 0.48449,3.70012 10.05076,0.63555 5.21875,2.71875 -3.76612,2.78335 -8.12004,-4.98553 -7.28125,-4.96875 z m -99.28125,0.65625 c -1.20117,0.22468 3.04118,4.81444 0.875,0.1875 -0.42871,-0.18682 -0.7034,-0.2196 -0.875,-0.1875 z m 45.15625,0.4375 c -0.68904,0.11935 2.25001,3.63104 0.53125,0.1875 -0.27119,-0.15154 -0.43282,-0.20455 -0.53125,-0.1875 z m -8.15625,5.03125 c -0.48564,0.27722 2.88097,3.78342 1.0625,0.4375 -0.63347,-0.40549 -0.95043,-0.50147 -1.0625,-0.4375 z m -147.40625,1.28125 c -1.56978,0.32608 0.57315,4.21884 2.6875,1.0625 -1.04567,-0.72384 -1.80052,-1.01461 -2.3125,-1.0625 -0.13866,-0.013 -0.27035,-0.0217 -0.375,0 z m 155.84375,4.1875 c 0.34834,-0.11201 0.9889,0.62732 1.65625,2.84375 0.37517,0.59851 3.1761,2.87105 0.9375,2.5 -2.92236,-1.85376 -3.25862,-5.12912 -2.59375,-5.34375 z m -88.9375,0.5 c -3.02344,0.18598 1.92198,4.42631 1.84375,0.1875 -0.79395,-0.17633 -1.41183,-0.21407 -1.84375,-0.1875 z M 280,365.78125 c 0.075,-0.0128 2.31716,2.50545 4.4375,4 1.49274,1.14225 12.12325,7.84159 7.53125,6.3125 -3.37505,-3.91427 -9.85098,-1.6703 -9.96875,-7.6875 -1.47881,-1.89865 -2.03926,-2.61808 -2,-2.625 z m -41.71875,1.4375 c -1.13097,-0.0243 2.0057,2.16944 0.75,0.15625 -0.36207,-0.11318 -0.58843,-0.15277 -0.75,-0.15625 z M 200.75,368.0625 c -2.74086,0.23693 -1.38985,6.22319 1.9375,0.5625 -0.80345,-0.46165 -1.42993,-0.60638 -1.9375,-0.5625 z m -5.3125,1.875 c -0.0559,-0.005 -0.11465,0.0145 -0.15625,0.0312 -0.72099,0.29032 0.68241,3.40099 0.875,0.375 -0.32578,-0.25576 -0.55106,-0.39013 -0.71875,-0.40625 z m 47.875,1.1875 c -0.1068,-0.007 -0.20331,0.006 -0.28125,0.0312 -0.28777,0.0935 -0.34438,0.4395 -0.0937,1.0625 -2.49551,3.11542 -5.46026,7.03128 -1.03125,9.65625 -5.52769,2.62447 6.49999,12.75865 -0.1875,7.75 -1.50815,-6.63545 -3.6446,5.94811 -3.21875,-0.375 0.49443,-0.42385 -5.20365,-1.87783 -7,-5.3125 -1.06191,-7.10221 -5.24304,-1.61788 -1.90625,2.15625 3.6414,3.77907 1.3684,2.58768 -0.5,4.4375 2.06618,3.83482 2.82085,7.08679 -1.59375,3.15625 -0.65195,-4.56755 -7.23249,-5.57689 -3.96875,-0.15625 -0.26684,0.13126 -5.33337,1.22404 -1.40625,3.15625 1.12005,4.77774 5.09644,6.10019 9.4375,8.15625 0.10336,-2.7271 2.12224,-10.20799 2.5625,-4.0625 1.54492,-2.8554 2.63223,-0.15244 3.3125,2.34375 3.40487,-1.32729 3.20799,1.43672 6.1875,4.46875 -0.18783,1.33123 -6.21752,-6.45978 -7.46875,0.46875 0.41591,2.33878 4.7004,6.3312 6.09375,6.3125 -5.44719,3.77462 7.85841,2.39313 2.40625,5.34375 1.47683,2.57809 8.68985,-3.80308 10.4375,-0.53125 -0.91978,8.08905 4.71578,0.36491 3.875,-3.40625 1.43609,2.88449 4.85789,5.11756 8.625,2.6875 1.20056,1.4837 -9.77349,3.32835 -7.71875,8.75 -2.5924,3.63104 -0.91493,8.67182 3.40625,4.3125 2.04779,-3.2141 6.43919,-6.37241 7.4375,-9.90625 -0.37865,-3.35275 8.43846,-3.17704 6.78125,-9.15625 -0.99483,-1.95981 -3.32682,-1.86645 -5.3125,-2.03125 -4.53038,5.62543 -9.79145,-0.95871 -14.375,-0.28125 -0.64549,0.006 0.84022,-3.81711 -2.46875,-4.5 -2.47414,-2.03484 -0.10644,-6.75987 -3.5625,-7.03125 0.9506,-1.00459 2.51487,-10.71815 1.40625,-15.84375 -0.74538,-1.72251 -1.31191,-5.12567 -3.875,-5.4375 0.18887,-2.48358 -4.39801,-6.10964 -6,-6.21875 z m -67.03125,0.125 c -0.52336,0.0296 0.28085,1.6411 0.59375,0.28125 -0.28501,-0.21871 -0.47298,-0.28809 -0.59375,-0.28125 z m 23.34375,1.40625 c -2.54165,0.11234 -3.45317,7.82762 -5.84375,2.40625 0.99682,-6.47262 -2.29215,3.14586 -4.25,1.9375 1.94095,-3.21461 -0.18232,-1.46317 -3.09375,-1.90625 -1.287,2.62694 -5.53961,6.22322 0,8.375 3.95248,-5.06786 9.34615,9.70271 9.40625,2.9375 -0.98488,-4.10324 3.02366,-1.40676 7.84375,-2.25 3.48387,-4.75159 -2.14935,-1.49527 -2.09375,-5.09375 -3.03466,-4.46689 4.83569,2.72725 5.1875,-1.375 0.9983,-3.8368 -8.99801,1.04024 -5.09375,-3.625 -0.80165,-1.03636 -1.47597,-1.43217 -2.0625,-1.40625 z m 108.4375,2.78125 c 0.57195,0.0178 1.42446,0.0997 2.625,0.28125 0.94862,0.74801 5.5639,-1.29538 4.21875,0.53125 -3.14051,1.49948 -9.58341,-0.62138 -7.3125,-0.78125 0.13118,-0.009 0.27793,-0.0328 0.46875,-0.0312 z m 71.625,0.125 c 0.67829,-0.0207 1.13047,0.50956 0.5625,2.125 -4.6561,0.59703 -2.05474,-2.07911 -0.5625,-2.125 z m -117.03125,7 c -4.70678,0.0572 -1.25421,12.99064 0,0 z m -73.9375,1.25 c -1.50847,-0.0789 2.36747,3.27557 0.375,0.0625 -0.15178,-0.0388 -0.27444,-0.0572 -0.375,-0.0625 z m 14.53125,1.65625 c -7.19435,0.99028 0.25293,7.00601 0,0 z m -12.375,0.15625 c -1.5887,0.12214 2.02556,8.80235 2.03125,1.5625 -1.03039,-1.18753 -1.66463,-1.59069 -2.03125,-1.5625 z m 8.4375,0.0625 c -0.16557,8.5e-4 -0.32221,0.0178 -0.46875,0.0312 -4.39625,0.40465 0.75589,6.97796 1,0 -0.19117,-0.0169 -0.36568,-0.0321 -0.53125,-0.0312 z m -19.03125,1.46875 c -1.57086,-0.0586 -0.0345,3.11643 0.34375,0.0625 -0.13373,-0.0354 -0.23903,-0.0586 -0.34375,-0.0625 z m -2,0.28125 c -1.06541,0.0894 -2.73207,0.63127 0.15625,0.5625 0.90376,-0.5129 0.48299,-0.61611 -0.15625,-0.5625 z m 163.25,1.5625 c 1.07582,1.06825 7.20973,-0.19505 5.3125,1.46875 -3.87544,2.15326 -14.11239,-0.85099 -5.3125,-1.46875 z m -140.6875,0.75 c -1.57867,-0.16847 0.7114,5.58588 0.9375,0.5 -0.40039,-0.31387 -0.71198,-0.47593 -0.9375,-0.5 z m 59.875,0.0312 c -0.65231,0.18325 -0.54726,4.72336 -2.53125,3.78125 -2.36085,2.35161 -3.21105,15.13711 2.21875,10.125 -0.61767,-4.05142 -2.16027,-8.82342 0.9375,-13.21875 -0.26479,-0.54158 -0.47447,-0.72979 -0.625,-0.6875 z m -62.84375,0.375 c -0.10536,-0.0145 -0.19117,0.004 -0.25,0.0312 -0.70598,0.32989 1.78874,3.26913 1.96875,0.84375 -0.86631,-0.57073 -1.40267,-0.83151 -1.71875,-0.875 z m -4.6875,0.46875 c -10.22901,1.50886 5.05569,13.45138 6.09375,4.75 -1.11807,-2.86476 -3.86907,-2.73884 -6.09375,-4.75 z m 113.6875,4.6875 c 1.6592,-0.17467 4.85796,2.60739 3,2.375 -2.65701,-1.95393 -10.7707,-0.29575 -3.59375,-2.09375 0.15554,-0.16234 0.35673,-0.25658 0.59375,-0.28125 z M 200,397.75 c -0.80302,-0.0192 -2.04955,3.94542 0.5,1.71875 -0.0112,-1.27116 -0.23233,-1.71235 -0.5,-1.71875 z m -7.875,1.5 c -4.60471,-0.22056 2.37699,5.11731 5.59375,5.03125 -1.74169,-2.33534 -1.04042,-3.44722 -4.53125,-4.90625 -0.41452,-0.0673 -0.75552,-0.1103 -1.0625,-0.125 z m 150.65625,0.25 c 0.74289,-0.0202 0.28661,1.00938 0.34375,1.375 -6.02411,6.4593 -10.44673,16.93771 -17.25,20.90625 6.06336,-7.26357 11.17681,-15.10354 16.90625,-22.28125 z m -153.34375,1.40625 c -0.22033,0.0619 -0.0385,0.89111 0.6875,3.15625 -1.54691,6.94976 -2.40644,11.24762 -0.625,18.28125 0.27629,4.19156 9.17765,4.95178 9.15625,2.3125 -0.64798,-2.35951 -9.58938,-3.03816 -3.125,-3.3125 4.35833,-0.88291 -0.0249,-5.71015 -2.15625,-6.96875 3.32244,1.10147 4.58795,-3.25371 6.59375,-6 -0.81693,-1.39341 -3.82907,-3.45741 -6.78125,-4.6875 -1.89353,-0.89554 -3.38278,-2.88438 -3.75,-2.78125 z m 78.875,2.5 c -0.4708,0.13091 2.07977,2.82766 0.875,0.4375 -0.51645,-0.33324 -0.76635,-0.46771 -0.875,-0.4375 z m -7.75,1.9375 c -2.73617,0.26135 0.92437,9.14247 3.96875,2.34375 -1.91976,-1.81114 -3.20262,-2.41693 -3.96875,-2.34375 z m 7.21875,4.3125 c -0.77189,0.14641 -0.13848,2.23404 0.78125,0.28125 -0.34017,-0.24665 -0.60312,-0.31504 -0.78125,-0.28125 z m -72.625,17.375 c -1.89813,0.18143 -0.0134,6.5888 1.46875,0.65625 -0.63768,-0.51145 -1.11724,-0.68985 -1.46875,-0.65625 z M 314.875,427.3125 c 0.22784,-0.0131 0.4683,-0.005 0.71875,0 0.57245,0.0118 1.20516,0.084 1.875,0.21875 0.15902,0.57581 -0.53522,0.52172 -0.8125,0.78125 -5.93877,1.30215 -5.19881,-0.80288 -1.78125,-1 z m -18.40625,0.21875 c 1.47236,-0.0937 2.82971,0.51926 4.03125,1.71875 -2.38867,-0.80377 -9.39748,2.25886 -8.75,0.75 1.66168,-1.58091 3.24689,-2.375 4.71875,-2.46875 z m -61.90625,1.25 c -0.43935,-0.003 -0.8699,0.10383 -1.125,0.25 -6.40723,1.60064 -1.18856,3.05392 2.46875,0.78125 0.12733,-0.74259 -0.6115,-1.0269 -1.34375,-1.03125 z m 9.65625,1.1875 c -3.38793,-0.18071 -8.72452,4.71753 -5.3125,5.5625 1.70294,4.78415 9.0852,7.25682 9.125,-0.0625 -0.41542,-1.15804 1.12996,-3.18307 -1.65625,-3.9375 -0.41143,-1.04394 -1.20763,-1.5119 -2.15625,-1.5625 z M 190.65625,430 c -0.78539,-0.12832 -1.71361,1.80302 0.625,1 -0.097,-0.67425 -0.3632,-0.95723 -0.625,-1 z m 45,0.59375 c -0.73714,0.11568 -0.72549,1.31824 1.34375,0.78125 -0.52983,-0.66241 -1.00869,-0.83383 -1.34375,-0.78125 z m -47.875,0.0312 c 0.6783,0.73223 -4.55898,3.63636 -3.1875,5.125 -4.88717,3.35372 1.17972,5.52317 4.15625,3.4375 2.46964,-2.94618 -0.43238,-4.24709 0.0312,-7.8125 -0.20722,-0.41743 -0.67899,-0.47072 -1,-0.75 z m 4.75,3.125 c -1.07005,0.0862 2.42268,2.08493 0.75,0.0937 -0.36828,-0.0831 -0.59714,-0.10606 -0.75,-0.0937 z m 125.34375,0 c 0.21119,0.004 0.23609,0.31136 -0.0312,1.03125 -1.35062,3.51311 -9.8159,9.88643 -4.28125,3.34375 0.4338,-0.73075 3.55719,-4.3898 4.3125,-4.375 z m -46.625,4.46875 c 3.12809,1.67613 11.46166,0.016 12.09375,1.25 l -0.25,0.15625 -0.375,0.0937 c -3.37357,0.67548 -15.05102,1.2424 -11.46875,-1.5 z M 253.3125,439.75 c -0.83192,0.0762 -0.95386,3.00705 -2.25,2.6875 -4.4474,3.73713 5.88878,6.20683 4,-0.4375 -0.84631,-1.7288 -1.37186,-2.28463 -1.75,-2.25 z m -70.4375,0.34375 c -2.69775,2.58895 2.27014,3.72644 2.65625,1.15625 1.40428,-0.61332 -2.33176,-0.43734 -2.65625,-1.15625 z m 163.46875,2.0625 c 0.36523,0.008 -0.10495,0.83141 -0.5,0.84375 -3.7855,4.36721 -7.03554,12.37997 -8.8125,15.65625 0.48249,-5.54796 5.37616,-11.67999 8.90625,-16.34375 0.18535,-0.0967 0.32177,-0.15822 0.40625,-0.15625 z M 184.75,444.3125 c -1.04504,-0.11053 -2.97605,2.25089 0.5,1.15625 0.0733,-0.80464 -0.15165,-1.11941 -0.5,-1.15625 z m -3.40625,3.875 c -1.12202,0.0564 -2.60721,1.24001 0.8125,0.875 0.14209,-0.68585 -0.30249,-0.90062 -0.8125,-0.875 z m 66.25,1.09375 c -1.24464,0.22009 -1.05026,2.93661 1.6875,0.875 -0.69171,-0.75406 -1.27262,-0.94836 -1.6875,-0.875 z m -69.15625,1.9375 c -3.02951,-0.0581 -0.8517,7.23573 0.6875,0.125 -0.24989,-0.0756 -0.48553,-0.12113 -0.6875,-0.125 z m 88.96875,1.75 c -1.2254,0.0874 -2.21469,2.023 1.40625,1.4375 -0.24473,-1.13208 -0.84925,-1.47722 -1.40625,-1.4375 z m 166.53125,7.8125 c 0.0786,-0.0156 0.18149,-8e-4 0.28125,0 1.33025,0.0109 4.24685,1.38882 1,1.9375 -1.77877,-1.2801 -1.83126,-1.82868 -1.28125,-1.9375 z m -108.21875,0.125 c 0.77369,-0.0434 1.21174,0.1436 0.6875,0.75 -4.18701,1.98057 -14.89736,-0.0659 -4.84375,0.125 0.59381,-0.14358 2.86725,-0.80247 4.15625,-0.875 z m 23.21875,1.3125 c 0.86563,-0.0163 1.37914,0.24525 1,1.03125 -4.43398,0.81611 -15.79941,0.94275 -5.59375,-0.21875 0.74339,-0.0706 3.15071,-0.80264 4.59375,-0.8125 z M 236.96875,463.5 c -1.39362,0.073 -4.70843,2.22522 -5.28125,3.375 -2.69229,1.573 -7.40731,7.47631 -5.96875,7.03125 4.32565,-0.33553 10.60692,-3.27738 11.84375,-9.65625 0.12982,-0.55336 -0.12921,-0.77432 -0.59375,-0.75 z m 15.28125,3.625 c -2.11173,0.15376 -3.61667,1.54156 -2.5625,4.34375 -1.04948,-2.02349 -8.34586,-0.26445 -4.375,1.78125 -0.45915,1.03025 -4.32436,5.97909 2.0625,4.75 4.9622,1.33073 6.47827,7.21311 12,2.78125 1.79933,4.0909 -7.54583,3.27883 -7.71875,8.25 -5.79702,4.69139 2.80169,4.22875 5.8125,2.09375 5.49291,-1.08354 -6.03685,5.81921 -9.03125,3.625 -0.36773,1.94208 -1.70282,2.45178 -3.6875,-0.375 -6.65966,-0.55559 0.71098,10.76671 2.84375,5.21875 7.37224,0.0192 13.88442,-2.25597 19.46875,-6.09375 -4.65461,6.38134 8.46716,2.04435 7.96875,-2.6875 -4.68294,2.77496 -1.77188,-3.02761 -0.90625,-1.40625 3.34176,2.6141 1.93676,-2.96152 3.1875,-4.3125 -2.30519,-1.82316 -6.83549,-5.9827 -9.53125,-6 -4.44293,0.40954 -6.68615,-2.59133 -8.5625,-6.8125 -0.5568,-3.519 -4.25367,-5.35394 -6.96875,-5.15625 z m 107.46875,5.96875 c -0.18734,0.31629 -0.55068,0.50493 -0.78125,0.78125 -4.93735,2.43944 -7.41113,9.13388 -13.3125,8.9375 5.90137,-1.28831 8.89304,-9.4518 14.09375,-9.71875 z m -40.75,1.25 c 0.52375,-0.004 1.17457,0.17698 2.03125,0.625 -3.14348,4.6307 -4.8577,-0.60131 -2.03125,-0.625 z M 306.5,475.4375 c 0.10336,0.0163 0.18546,0.11924 0.21875,0.34375 -1.36702,3.51262 -6.41075,10.83633 -8.625,9.15625 3.29653,-0.93502 7.40199,-9.65543 8.40625,-9.5 z m -18.65625,0.125 c -1.15883,-0.0431 -6.31286,5.22638 -6.84375,6.5 -3.62103,4.84336 6.10892,-3.11122 7.0625,-6.125 0.0232,-0.24917 -0.0532,-0.36884 -0.21875,-0.375 z m -65.125,0.34375 c -1.2952,0.0425 -3.02918,1.67139 -4.875,1.5625 -4.4489,-0.13322 -8.74628,3.09823 -6.375,7.03125 4.77436,2.83714 2.61189,-4.6758 7.75,-3.125 0.57791,-3.22644 3.16992,-2.1895 4.96875,-4.25 -0.38557,-0.94088 -0.88002,-1.23808 -1.46875,-1.21875 z m 23.1875,4.6875 c -1.07905,0.20395 -2.16767,2.55257 0.90625,0.75 -0.21057,-0.63885 -0.54657,-0.81798 -0.90625,-0.75 z m -7.25,0.28125 c -0.84962,-0.14711 -0.27475,3.80041 0.46875,0.375 -0.18249,-0.22019 -0.34738,-0.35398 -0.46875,-0.375 z m 10,0.34375 c -1.69209,0.31679 0.23076,4.03653 3.9375,2.4375 0.76575,-0.73618 -0.59806,-0.96217 -0.96875,-1.3125 -1.43907,-0.97006 -2.40472,-1.2306 -2.96875,-1.125 z m -12.59375,2.375 c -0.45787,0.24977 -1.32939,2.66306 0.21875,0.71875 0.0461,-0.63613 -0.0661,-0.80201 -0.21875,-0.71875 z m 48.78125,4.59375 c -7.84978,0.6666 -2.64955,6.61521 0,0 z m 69.625,1.5 c 1.20799,-0.0271 1.72574,0.13915 -0.53125,0.65625 -3.9947,1.65245 -11.06483,0.004 -3.0625,-0.1875 0.50288,-0.22401 2.38575,-0.4421 3.59375,-0.46875 z m -47.28125,0.34375 c 0.37865,-0.0202 0.63985,0.17566 0.65625,0.75 -2.65552,4.12199 -8.94808,5.11305 -10.25,10.15625 -0.59531,2.86427 -6.87692,8.76379 -7.46875,7.0625 7.28528,-3.84913 6.67479,-13.53606 15.21875,-15.75 -0.26883,-0.92269 1.01142,-2.14572 1.84375,-2.21875 z m -67.59375,4.3125 c -2.15859,0.21867 -2.45255,7.10796 1.375,0.6875 -0.51345,-0.5443 -0.97526,-0.72799 -1.375,-0.6875 z m 39.3125,2.09375 c -3.92783,0.12983 1.04804,8.85912 1.53125,0.25 -0.61144,-0.19969 -1.12492,-0.26343 -1.53125,-0.25 z m -36.5625,2.15625 c 1.08874,5.06737 1.40477,0.32023 0,0 z M 329.5,498.875 c 2.13923,3.19782 7.87963,2.13622 8.625,4.90625 -0.2584,-0.0168 -0.438,-0.41891 -0.71875,-0.28125 -2.90845,0.36612 -9.16493,-3.22272 -7.90625,-4.625 z m -4.0625,1.875 c 0.10783,-0.0587 0.27925,0.1278 0.5625,0.65625 -1.02415,7.49448 4.87074,13.21337 8.09375,17.34375 -2.66447,0.38288 -3.33866,4.67943 -3.96875,4.46875 -2.71962,-4.29124 -1.5883,-11.54037 -4.65625,-16.71875 0.38511,-0.73519 -0.49637,-5.49442 -0.0312,-5.75 z m -48.09375,0.0625 c -0.66423,0.0481 0.13162,2.72845 -0.3125,3.21875 -0.66686,7.4101 3.18538,-0.47306 1.03125,-2.78125 -0.3425,-0.32695 -0.56547,-0.44861 -0.71875,-0.4375 z m -5.625,1.78125 c -0.84674,0.16758 -0.76944,2.26129 0.71875,0.28125 -0.2893,-0.23767 -0.52335,-0.31992 -0.71875,-0.28125 z m 8.8125,2.3125 c -2.8021,0.29161 0.65494,4.8108 0,0 z m -5.96875,0.5 c -0.8343,0.1087 0.47699,2.7441 0.5,0.15625 -0.21672,-0.10892 -0.38081,-0.17178 -0.5,-0.15625 z m 1.03125,2.28125 c -7.27535,0.92467 1.04203,6.68775 0,0 z m -0.71875,4.125 c -3.69209,2.45621 -10.97638,6.88181 -13.65625,12.5625 -3.38697,6.54613 6.04559,0.96006 7.46875,3.25 1.99661,-4.91244 7.14257,-10.57886 6.1875,-15.8125 z m -22.09375,2.09375 c -1.83747,0.12282 -5.46308,2.94859 -6.1875,6.53125 2.03785,3.63055 5.08175,-1.68394 6.53125,-6.53125 -0.10522,-0.0163 -0.22125,-0.008 -0.34375,0 z M 248.46875,522 c -1.23283,-0.0327 -2.36375,3.87299 0.8125,0.78125 -0.24457,-0.56222 -0.528,-0.7737 -0.8125,-0.78125 z m 18.78125,5.59375 c -0.63841,-0.009 -1.79366,0.79635 -2.34375,0.84375 -11.48671,-3.67841 -12.72845,16.9891 -2.8125,13.625 0.53865,-7.17821 5.72648,-6.82542 5.5625,-14.125 -0.0532,-0.24646 -0.19345,-0.3408 -0.40625,-0.34375 z m -14.5625,2.59375 c -1.91614,0.2652 -6.20523,4.45688 -7.53125,5.375 -1.16377,3.87972 -2.76713,6.2037 -1.78125,0.1875 0.26585,-1.1245 -6.11291,1.29264 -6.21875,3.53125 -1.50267,3.34931 1.40049,5.25004 -0.9375,7.875 -4.98506,4.76541 0.0783,9.22821 4.03125,2.875 -0.1784,-3.95521 5.79548,-8.28778 6.4375,-4.46875 -7.84233,1.98057 2.04449,5.97603 -0.65625,9.59375 -7.32355,3.10704 2.45715,10.39726 3.125,2.15625 4.17807,0.52795 7.36823,-1.94016 9.78125,-4.59375 -0.1287,-7.09136 -6.54881,-13.54022 -5.3125,-21.21875 0.0806,-1.04715 -0.29879,-1.4009 -0.9375,-1.3125 z m 49.28125,1.40625 c -5.72347,3.5368 3.5363,7.22572 2.09375,12 2.90199,0.95772 6.27289,8.39861 4.84375,2.1875 1.8371,-5.56178 -2.98304,-10.34281 -6.9375,-14.1875 z m -0.0937,10.1875 c -1.61458,0.28711 2.90605,5.06012 0.40625,0 -0.16609,-0.025 -0.29861,-0.0191 -0.40625,0 z m 12.78125,0.59375 c -5.34533,3.47611 1.81561,6.73529 0.34375,0.59375 l -0.125,-0.40625 -0.21875,-0.1875 z m -2.5625,5.375 c -0.88924,0.32194 -0.289,4.84369 0.875,0.59375 -0.37362,-0.53464 -0.66979,-0.66804 -0.875,-0.59375 z m -38.4375,0.59375 c -1.27789,0.21439 -0.60841,2.66125 -1.9375,3.9375 -0.37269,6.32064 3.76813,-1.26319 2.21875,-3.9375 -0.10364,-0.006 -0.19606,-0.0143 -0.28125,0 z m 23.28125,0.78125 c -2.67688,0.80821 -6.6378,3.91962 -6.6875,8.6875 3.29057,6.23134 0.62178,14.70824 9.40625,16.28125 4.80518,0.78107 7.51514,-1.96847 6.25,-5.9375 -2.71515,-2.0462 0.85328,-3.85086 -1.4375,-6.78125 -1.79038,-3.0873 -0.62411,-11.52419 -7.53125,-12.25 z m 9.6875,16.4375 c -1.44002,0.27476 2.93718,4.13312 0.34375,0 -0.15175,-0.0169 -0.24775,-0.0183 -0.34375,0 z m 34.34375,21.25 c 0.42834,-0.0192 1.34579,0.60872 1.3125,1.1875 -1.23783,5.59878 -1.88003,4.44057 -1.28125,-0.3125 -0.38163,-0.60887 -0.28816,-0.86365 -0.0312,-0.875 z m -59.78125,0.0937 c -1.32898,0.0117 -1.93925,2.97511 1,0.5625 -0.34846,-0.41456 -0.69331,-0.5652 -1,-0.5625 z"
     id="line475"
     style="fill:#6868e5;fill-opacity:1;stroke:#000000;stroke-width:0.5;stroke-miterlimit:4;stroke-opacity:1;stroke-dasharray:none;display:inline" />
  <path
     d="m 456.25,541.09375 c -1.37929,2.18161 -4.39179,4.51006 -4.9375,5.59375 -0.5325,1.05754 -1.04924,1.7107 -1.78125,2.4375 -0.59376,0.58961 -1.62388,1.28474 -2.28125,1.9375 -0.6199,0.61552 -0.72923,1.92036 -1.25,2.4375 -0.76833,0.76291 -1.37109,1.60345 -2.28125,2.28125 -0.90895,0.67691 -1.12176,1.15134 -1.40625,2.28125 -0.19966,0.79307 0.0393,1.84898 0.1875,2.4375 0.21899,0.86989 0.28391,1.82341 0.6875,2.625 0.4994,0.99176 1.86938,2.02988 2.46875,2.625 0.41786,0.41494 0.68306,2.10884 1.25,2.8125 0.14634,0.78752 0.26075,1.90142 0.34375,2.90625 0.20528,1.80929 -0.008,4.44095 -1.4375,4.71875 -0.29135,0.15346 -0.57829,0.30571 -0.84375,0.4375 -0.88157,0.43769 -1.34054,1.66656 -1.78125,2.25 -0.66268,0.87738 -1.26445,0.74518 -2.28125,1.25 -0.82423,0.4092 -1.48953,1.76383 -2.46875,2.25 -0.1051,0.0522 -0.22628,0 -0.34375,0 -1.05724,0 -2.07153,1.35693 -2.65625,1.9375 -0.83293,0.82706 -1.85242,1.27763 -3,1.5625 -0.66875,0.16601 -1.67834,1.27105 -2.28125,1.75 -0.81463,0.64712 -1.87188,1.74279 -2.65625,1.9375 -0.80442,0.19969 -0.85961,1.28779 -1.0625,2.09375 -0.24493,0.97288 -0.44293,1.61076 -0.875,2.46875 -0.45036,0.89437 -0.9466,1.36846 -1.40625,2.28125 -0.59908,1.18979 -1.51094,2.17393 -2.46875,3.125 -0.93633,0.92973 -1.70279,1.38654 -2.8125,1.9375 -1.2571,0.62411 -1.56534,1.25291 -2.8125,1.5625 -0.74781,0.18564 -1.72734,2.34766 -2.3125,2.8125 -0.66761,0.53033 -1.35744,0.64567 -2.28125,0.875 -1.14733,0.28481 -1.3953,1.21875 -2.8125,1.21875 -0.49751,0 -1.62412,3.72805 -2.03125,4.03125 -0.26743,0.29687 0.73677,2e-5 0.875,0.1875 0.85218,0.52162 1.3162,-0.27032 0.46875,1.75 -0.4131,0.3032 -0.83411,0.57841 -1.1875,0.84375 -0.19271,0.32453 -2.24094,0.87735 -0.0312,0.90625 0.23935,-0.0177 0.51433,-0.0569 0.90625,-0.125 -0.12188,0.92478 -0.43188,1.48767 -0.90625,1.78125 -2.49032,1.54129 -9.04711,-3.93832 -11.375,1.25 2.87863,1.25673 1.05421,5.25524 -2.09375,2.6875 -2.19984,-0.62218 -6.25371,7.15399 -5.5625,10.75 -6.49916,5.28201 -5.76214,13.97952 -9.25,20.40625 1.61747,7.01143 12.1593,12.76967 11,21.0625 1.20154,3.40506 6.86322,10.38941 8.1875,4.78125 1.5023,-9.3211 2.79522,3.8676 -0.0937,4.53125 -0.46312,3.47759 1.05479,5.40512 3.71875,7.53125 0.52247,0.68299 2.80143,-2.62023 4.34375,-5.4375 0.29529,-0.45028 0.51552,-0.8939 0.71875,-1.3125 1.28553,-6.16966 2.42641,-0.48042 5.3125,0.125 1.01966,-1.7082 8.47317,-6.1521 5.4375,-2.75 4.11595,5.29335 0.77116,8.27735 -3.03125,12.125 -0.072,4.50143 3.81352,2.266 2.40625,5.9375 1.66666,2.54405 -5.05357,2.61973 -8.40625,3.3125 -3.15592,7.33609 -2.7488,21.38892 8.84375,15.96875 -2.95037,2.57693 -9.42123,6.95195 -12.03125,12.90625 -0.25658,0.58531 -0.48142,1.19693 -0.65625,1.8125 0.21097,0.34983 0.43477,0.69517 0.625,1.0625 2.85313,5.50993 3.59594,12.7964 9.3125,16.25 2.28929,4.73678 10.19151,-1.7034 7.65625,2.96875 -5.19377,7.9721 -12.75618,-3.25878 -13.46875,-9.125 -1.53188,-0.14006 -2.74265,-0.03 -3.6875,0.3125 -5.56934,2.01883 -1.88698,11.283 -0.21875,14.0625 1.17901,0.95673 2.28125,1.5625 2.28125,1.5625 0,0 4.31531,3.55187 5.25,5.59375 0.93471,2.04195 -2.68693,0.48375 -2.5,1.96875 0.18694,1.485 1.13055,1.18938 3,4.46875 1.8694,3.27937 3.71875,8.65625 3.71875,8.65625 l 4.5,0.75 0.75,5.1875 c 0,0 -1.62911,2.71625 -3,2.46875 -1.37089,-0.2475 -0.63055,-2.6025 -2.5,-3.46875 -1.86944,-0.86625 -3.28624,0.495 -4.96875,0 -1.6824,-0.49499 -0.56605,-1.90685 -1.75,-1.96875 -1.18396,-0.0619 -1.37986,1.03813 -3,1.71875 -1.62015,0.68063 -1.97324,-1.96999 -3.46875,1 -1.49552,2.97001 -3.11086,9.55018 -2.5,10.875 0.24607,0.53371 7.9695,4.8475 8.21875,5.21875 0.89873,1.33856 -5.891,8.52954 -8.21875,12.125 -1.12164,1.7325 0.13666,3.55855 1.75,3.71875 0.62313,0.0619 3.65943,-3.96374 4.71875,-3.46875 1.05933,0.495 0.23926,4.40977 -0.5,5.4375 -0.47083,0.65456 -4.72692,0.54312 -7.46875,1.71875 -2.74183,1.17563 -3.5,2.96875 -3.5,2.96875 0,0 5.00391,8.68857 8.96875,8.1875 3.42728,-0.43312 5.06157,-0.68062 4.75,0 -1.78239,3.89364 -6.65262,9.87212 -8.96875,16.5625 -0.68544,1.97999 1.10009,6.45375 3.21875,11.15625 2.11864,4.7025 2.53679,6.53369 5.25,7.65625 0.74777,0.30937 4.00224,-1.65437 4.75,-1.46875 2.67708,0.66456 2.72617,4.02188 5.21875,6.1875 2.49258,2.16563 4.3138,0.17937 4.75,2.46875 0.96371,5.05819 -0.625,16.59375 -0.625,16.59375 0,0 -0.30929,0.93422 -0.625,1.78125 4.59865,-1.86817 9.13478,-11.55216 15.625,-13.71875 0.60826,-1.1017 1.22891,-1.51115 1.6875,-1.53125 1.00889,-0.0442 1.21745,1.83609 -1.34375,2.4375 -5.97193,4.65487 -9.81939,12.4879 -14.03125,18.90625 -5.5744,0.21809 -9.18645,8.49343 -12.5625,9.59375 -0.26882,4.3603 -3.2143,3.60795 -2.375,7.59375 2.22618,4.94847 -1.48054,8.03354 -6.5625,6.5 -5.91925,3.01575 -12.82606,2.50949 -18.03125,-1.21875 -3.60241,0.49321 -7.5045,-0.52113 -11.40625,-0.65625 -1.356,-0.047 -2.72211,0.0205 -4.0625,0.28125 -5.67776,1.05146 -17.60974,-0.51196 -19.21875,4.4375 -3.58963,2.20075 0.90646,5.81215 -0.71875,8.9375 -0.29724,0.57161 -0.76484,1.13023 -1.5625,1.65625 -1.69871,3.37323 -3.97083,3.49775 -6.40625,2.875 -2.12457,-0.54756 -4.34763,-1.6507 -6.40625,-1.6875 -0.2954,-0.005 -0.58716,0.0186 -0.875,0.0625 -0.0437,2.62102 0.2216,4.24033 -1.09375,6.6875 2.86994,0.56005 5.37426,1.71179 5.53125,2.75 0.17124,1.13202 -0.33269,2.85814 -0.4375,4.1875 -0.20085,2.54844 -0.69138,4.07433 -0.15625,4.9375 0.53518,0.86323 2.07425,1.08565 3.46875,1.34375 2.08401,3.49136 1.45854,7.87186 2.90625,12.03125 0.71903,2.06583 2.44084,7.64391 3.4375,8.84375 1.27325,1.53284 -0.30291,7.20465 1.28125,9.8125 5.93859,-2.25474 5.70474,7.6817 11.90625,4.71875 4.77535,-2.00426 6.28555,7.36305 10.28125,6.25005 4.10701,1.9605 7.22803,-0.26903 7.03125,-5.1563 3.38847,-2.08764 2.71378,-5.4661 5.5,-3.9375 3.88935,-4.3756 -0.70333,-3.76155 -1,-8.09375 5.54012,-0.45739 -0.56562,-5.6219 3.96875,-8.78125 3.51419,-2.04569 -1.97123,-12.73248 1.9375,-6.53125 2.47067,7.58922 7.16667,-3.23795 11.625,-3.21875 7.71064,1.10081 14.53003,-6.30404 21.90625,-1.15625 5.60969,3.86048 16.20442,7.59911 14.78125,15.0625 0.84675,-0.64538 0.77505,-2.00625 1.75,-2.625 -2.52384,-3.01377 -1.58093,-9.3452 4.59375,-6.8125 7.01496,-0.31036 11.96661,3.78865 18.1875,2.9375 2.6575,-2.67332 1.867,-4.24872 1.34375,-6.53125 -3.85557,0.2324 -4.02045,-2.19274 -6.1875,-1.125 -2.47564,-0.86544 2.4341,-2.50311 4.90625,-2.15625 1.2249,5.8149 5.63068,-3.2317 10.25,0.21875 0.48697,-0.40805 0.95329,-2.93749 4.90625,-2.09375 5.01736,3.51311 6.48249,-0.539 11.03125,-2.5625 7.59039,0.39375 6.51045,-6.24739 1.46875,-9.03125 -7.21671,-3.94287 2.23666,-0.92414 4.15625,2.34375 3.19765,0.98831 8.0336,8.76031 10.0625,4.0625 -3.12013,-3.11147 -1.17502,-3.92236 2.40625,-2.75 -4.2705,3.11838 1.69517,7.32245 1.84375,0.875 4.50603,-4.25867 0.14088,5.09588 1.53125,3.90625 4.71275,2.286 0.98517,-8.7455 3.75,-3.59375 -0.40746,0.25114 5.51403,-0.27266 1.53125,2.5625 -2.91689,1.49159 8.49672,8.13694 7,2.71875 1.92754,-1.57942 12.51736,-2.57403 17.8125,-3.71875 11.08271,-5.01458 21.87082,2.90974 32.3125,4.96875 3.98129,-7.52161 12.84441,-7.59411 20.28125,-10.1875 3.62649,-6.17756 9.4558,-4.8268 15.34375,-3.40625 -2.03635,-7.29219 5.03115,-13.31991 11.78125,-13.78125 5.77019,-1.2444 12.69263,-6.08709 9.53125,-13.4375 -3.89382,-5.40289 3.69542,-4.98625 2.59375,-10.4375 -1.66616,-0.74258 -3.72904,0.12451 -5.46875,0.3125 -9.28288,-0.84079 -17.83787,5.67775 -26.71875,2.15625 3.22449,0.92268 10.96489,-1.57932 3.65625,-4.9375 -3.54798,-1.94554 -7.36627,-1.28403 -7.53125,0.53125 -1.16178,0.0878 -1.31492,4.20179 -4.96875,2.21875 -6.01964,1.18914 -0.64621,-5.26923 3.1875,-3.75 4.88719,-2.86033 -6.27139,-4.77005 -9.03125,-3.875 -1.20652,0.59062 -7.35871,4.96494 -4.8125,2.09375 1.74616,-5.35997 8.35955,-3.20842 11.46875,-5.75 4.63175,0.94933 10.16979,0.50356 13.4375,-4.25 4.70231,-3.6187 -1.53913,-2.1342 -2.40625,-1.71875 -5.44126,-3.60341 1.86045,0.40818 3.625,-3.34375 3.45804,-5.18678 -0.86455,-9.97134 -5.625,-5.59375 -1.84852,0.92169 -4.75035,1.15177 -4.84375,-1.375 6.47931,1.4536 7.32738,-5.56217 13.1875,-5.6875 3.02323,5.44879 10.70844,1.94041 13.71875,-2.65625 3.27964,-5.41917 -1.04899,-0.18835 -3.34375,-2.78125 1.99264,-2.25835 7.32646,-6.58009 0.3125,-5.40625 -5.90286,0.78206 -4.01879,-2.50821 0.40625,-0.875 6.20398,2.04817 -1.03838,-5.94666 3.25,-2.0625 2.15413,7.99085 7.36332,-1.57357 9.1875,-5.34375 6.40623,-0.70164 8.2605,-8.1254 7.9375,-14.09375 1.26267,-7.74859 6.64791,-14.6251 6.875,-22.21875 -0.9819,-10.23935 -1.67237,-22.48411 -12.6875,-27.625 -5.95156,-7.49448 -15.49833,-7.58407 -23.6875,-10.625 -5.15251,-1.38846 -0.47568,0.72468 -1.875,1.1875 -6.15182,-0.88272 -10.81133,-0.97187 -17.59375,-0.71875 -6.18263,-2.16658 -9.29366,4.29332 -10.125,10.03125 -2.96261,2.68566 -2.18507,8.27231 -5.5,3.03125 -7.19485,3.12035 -7.86814,-11.00817 -15.625,-6.375 0.86464,-3.35621 6.1848,-7.92735 9.375,-12.09375 6.00325,-3.57529 9.66942,-8.98166 7,-16.09375 -3.20859,-9.76517 -5.73842,-19.9711 -15.3125,-23.6875 -3.10373,-5.55733 -8.85181,-5.83527 -12.6875,-11.34375 -1.29,-6.76374 -6.77787,-3.77085 -11.46875,-3.78125 -3.51915,3.70011 -6.26001,-0.88964 -9,-0.5625 -5.84026,2.95556 -3.65092,-1.75197 1.15625,-2.03125 5.75726,5.28547 14.70195,-4.48249 19.125,1.71875 3.44661,5.02987 8.43696,7.49849 14.03125,5.34375 5.65838,-0.39128 2.04055,8.33088 4.34375,4.5 0.19926,-7.75303 -7.76883,-13.68774 -11.125,-20.46875 -5.07599,-6.52689 -11.26255,-20.83951 0.25,-23.875 -1.98269,-3.40654 -11.33726,-2.56009 -9.40625,-8 -6.23231,-2.29043 -7.19713,-7.3902 -9.03125,-13.0625 -3.28014,-4.21919 -3.56065,-10.10577 -9.625,-11.25 -5.64496,-6.38923 -14.37623,-6.00449 -20.9375,-10.5 -4.97513,-4.1284 -2.6186,3.73878 -6.5,1.0625 2.09201,-2.89882 -0.75091,-5.24296 1.15625,-7.5625 -7.99785,-3.7539 -8.30901,-13.9695 -9.4375,-21.5 -2.75342,-5.99894 -5.78868,-10.88987 -7.46875,-17.15625 1.15235,-5.02838 -3.98054,-9.00631 -2.09375,-14.21875 -2.32458,-3.88367 -1.66895,-7.92275 -1.5,-12.53125 -1.61051,-5.06589 -1.14857,-9.54034 -5.1875,-13.125 -4.40765,-0.98239 -2.85946,0.0813 -4.34375,-3.375 -1.19657,0.96759 -4.0361,0.15999 -4.9375,-3.71875 -3.25579,-2.94174 -7.07649,-6.93206 -9.28125,-10.84375 z m 12,10.78125 c -1.96284,-0.18767 -0.0404,3.26214 2.1875,1.21875 l -0.15625,-0.375 c -0.9088,-0.54195 -1.57829,-0.80044 -2.03125,-0.84375 z M 401.6875,646 c 0.22112,-0.0321 0.50286,0.25939 0.84375,1.09375 -1.60802,5.28497 -1.80181,-0.9546 -0.84375,-1.09375 z m 9.71875,15.78125 c 0.11329,0.004 0.33325,0.11283 0.65625,0.34375 3.66525,2.12613 -1.51903,14.97276 0.25,6.1875 1.96232,-1.61889 -1.69883,-6.55988 -0.90625,-6.53125 z m -14,22.1875 c -2.71763,0.28075 -0.17916,4.97469 0.4375,6.5625 6.33021,4.67363 -3.01202,-2.58064 -0.4375,-6.5625 z M 593.4375,781.125 c -3.9942,0.43125 4.49285,1.60623 0.4375,0.0312 l -0.4375,-0.0312 z m 27.09375,88.53125 c -0.65821,0.12737 -0.31975,1.88207 0.625,0.25 -0.262,-0.20289 -0.47311,-0.27939 -0.625,-0.25 z m -13.9375,7.1875 c -2.87074,0.28634 -3.12941,3.53522 1.59375,1.09375 0.42437,0.008 1.26901,-0.17368 0.625,-0.75 -0.59487,-0.21513 -1.13577,-0.32167 -1.625,-0.34375 -0.21404,-0.01 -0.40237,-0.0191 -0.59375,0 z M 327.0625,924.3125 c -2.26395,3.15835 1.4818,4.35587 0,0 z m 166.84375,33.65625 c -1.38261,-0.012 -2.67075,0.61998 -3.875,2.46875 -1.39235,2.07628 -6.53734,0.34741 -8.6875,5.0625 0.87408,-0.1732 9.43083,2.62537 12.0625,6.625 7.46269,2.77003 6.12126,-6.24573 11.84375,-7.3125 1.51261,-1.20738 -1.39312,-2.59985 -1.53125,-3.9375 -3.37701,0.20116 -6.77077,-2.87984 -9.8125,-2.90625 z"
     id="path2633"
     style="fill:#ffffff;fill-opacity:1;stroke:#000000;stroke-width:0.5;stroke-miterlimit:4;stroke-opacity:1;stroke-dasharray:none;display:inline" />
  <path
     d="m 332.6875,945.59375 c 1.66681,7.49355 -1.95802,13.07654 -6.59375,17.6875 -5.51576,0.86743 -2.02811,9.58009 -9.09375,8.6875 -3.79196,-0.57335 -2.15208,1.64705 -3.9375,2.4375 -4.4454,-1.06627 -4.25622,5.43936 -5.5,10.1875 -6.09815,-0.25067 -3.06884,5.52717 -7.59375,7.84375 -2.45228,4.71656 -8.66267,5.39806 -10.90625,9.6563 -4.01209,-3.15595 -7.97585,1.1506 -12.625,2.8124 -1.65821,2.3764 -2.62482,7.3667 -0.21875,9.1563 7.68828,3.1667 5.51045,-9.0385 11.625,-5.8125 7.51585,0.4164 9.06847,7.0067 12.125,11.9062 1.11806,-0.856 3.11076,-4.3896 5.8125,-4.4374 4.99946,-3.5946 -4.03728,-5.6984 0.1875,-7.375 2.77924,-2.7138 0.0155,-4.3701 2.71875,-7.5626 0.47057,-0.031 1.22549,4.8136 1.0625,5.4688 1.94841,-3.2131 3.91748,-4.1866 6.53125,-6.0938 4.92244,0.3217 4.89772,-3.30558 5.78125,-6.68745 0.82586,-4.41902 4.40552,-0.14359 5.65625,-1.21875 6.89967,1.80591 11.75851,-4.34126 18.6875,-1.8125 2.27289,4.99977 6.96408,-0.0343 2.0625,-1.0625 -1.41229,-2.71723 0.1483,-8.40466 -1.125,-9.9375 -0.99666,-1.19984 -2.71847,-6.77792 -3.4375,-8.84375 -1.44771,-4.15939 -0.82224,-8.53989 -2.90625,-12.03125 -1.3945,-0.2581 -2.93357,-0.48052 -3.46875,-1.34375 -0.53513,-0.86317 -0.0446,-2.38906 0.15625,-4.9375 0.10481,-1.32936 0.60874,-3.05548 0.4375,-4.1875 -0.17118,-1.13203 -2.37248,-2.25242 -5.4375,-2.5 z M 246.15625,1019.25 c -2.43836,1.1862 4.59349,1.0919 0,0 z m -2.4375,0.75 c -1.33968,2.0624 3.48587,1.8848 0,0 z m 2.0625,2.2812 c -3.29157,2.0917 2.52433,2.4248 0,0 z"
     id="line504"
     style="fill:#f0b550;fill-opacity:1;stroke:#000000;stroke-width:0.5;stroke-miterlimit:4;stroke-opacity:1;stroke-dasharray:none;display:inline" />
  <path
     d="m 340.65625,744.34375 c -0.42754,-0.0198 -0.88986,-0.0159 -1.375,0.0312 -2.79018,0.49539 -4.26652,1.54557 -6.96875,2.1875 -1.67858,5.22823 -0.36594,12.10236 2.90625,17 2.78024,2.6072 3.89012,5.83223 7.9375,5.53125 3.50426,-1.98896 6.02472,-7.78572 10.8125,-10.03125 6.57022,-3.49289 1.65605,-7.60753 -3.25,-3.75 -3.39331,-3.23295 -3.64947,-10.6724 -10.0625,-10.96875 z m 51.8125,6.875 c -5.6751,0.29828 -11.82947,6.1122 -18.0625,4.40625 -2.49004,-1.71166 -11.28911,-6.47246 -6.3125,-0.53125 -3.71593,1.9036 -11.09599,5.85395 -16.53125,6.09375 -2.4821,2.37579 -6.13976,9.59441 -8.15625,8.875 10e-4,4.83054 -3.30951,9.53179 -7.78125,12.71875 -5.99082,3.14997 -11.2126,7.19053 -13.5625,13.75 1.72529,1.51872 2.89279,-1.54407 5.4375,-0.875 3.27318,-4.14715 5.77001,3.31396 7.90625,0.96875 -0.90091,-6.88165 8.37347,-9.88553 14.8125,-9.4375 6.75259,1.90902 -0.10254,8.69164 4.5625,11.8125 0.90985,4.3381 4.95836,2.46612 5.21875,2.90625 -4.97761,2.52875 -9.23322,11.52636 -2.21875,14.90625 5.14506,-2.43402 5.18035,0.85396 0.28125,1.65625 -2.55613,1.55722 -1.88495,10.48722 -4.65625,14.625 -2.95665,7.61734 -10.72165,9.8063 -16.0625,14.0625 -1.96828,4.53399 -10.30463,0.41336 -11.9375,4.09375 -2.22419,-0.0834 -3.36782,4.91613 -7.125,5.5625 0.81245,4.91787 -4.41827,-0.0208 -5.46875,3.34375 -1.34565,-0.31085 -8.04352,-4.0667 -6.71875,1.3125 -1.85001,3.64091 -8.26554,4.15101 -10.6875,6.8125 -2.6421,5.8815 5.53612,0.0846 8.65625,4.15625 2.30072,5.04714 -0.19246,6.79772 -3.8125,8.6875 -4.23869,0.56052 0.86495,2.05036 1.5,4.625 -0.0383,-5.5006 7.01684,0.14339 10.9375,-2.09375 8.11811,-1.30656 -2.9822,2.73322 -4.625,1.90625 -1.41273,0.62319 -6.34461,0.0362 -0.84375,2.1875 -0.0144,3.15291 3.94281,5.37991 7.09375,4.0625 2.16407,-4.55373 7.59007,-1.53769 10.5,-4.15625 -0.31504,-7.38741 8.16605,-5.52501 13.53125,-6.5 -2.29576,-4.88826 1.20022,0.19767 2.6875,-2.9375 -0.18585,1.69439 5.52592,5.86923 0.71875,4.03125 -1.51609,2.96888 5.01453,5.54735 8.28125,3.71875 1.93449,4.04453 8.64183,-1.88037 5.59375,2.625 -4.55275,3.80274 -7.60518,-1.16968 -10.375,3.125 -0.50635,3.71196 2.19501,6.51889 5.78125,5.21875 2.51838,-2.45376 6.91924,-1.17615 9.9375,-1.375 -4.10552,-4.13383 5.65573,-5.86084 7.0625,-3.9375 4.54876,2.36247 2.99484,11.62499 8.40625,10.6875 5.4785,7.99974 16.67534,8.96936 24.625,5.4375 -0.8075,-5.56621 5.62589,-7.65663 9.03125,-11.65625 2.42247,2.32299 7.86213,0.17514 11.75,-1.875 0.40946,-0.87828 0.71875,-1.8125 0.71875,-1.8125 0,0 1.58871,-11.53556 0.625,-16.59375 -0.4362,-2.28938 -2.25742,-0.30312 -4.75,-2.46875 -2.49258,-2.16562 -2.54167,-5.52294 -5.21875,-6.1875 -0.74776,-0.18562 -4.00223,1.77812 -4.75,1.46875 -2.71321,-1.12256 -3.13136,-2.95375 -5.25,-7.65625 -2.11866,-4.7025 -3.90419,-9.17626 -3.21875,-11.15625 2.31613,-6.69038 7.18636,-12.66886 8.96875,-16.5625 0.31157,-0.68062 -1.32272,-0.43312 -4.75,0 -3.96484,0.50107 -8.96875,-8.1875 -8.96875,-8.1875 0,0 0.75817,-1.79312 3.5,-2.96875 2.74183,-1.17563 6.99792,-1.06419 7.46875,-1.71875 0.73926,-1.02773 1.55933,-4.9425 0.5,-5.4375 -1.05932,-0.49499 -4.09562,3.53062 -4.71875,3.46875 -1.61334,-0.1602 -2.87164,-1.98625 -1.75,-3.71875 2.32775,-3.59546 9.11748,-10.78644 8.21875,-12.125 -0.24925,-0.37125 -7.97268,-4.68504 -8.21875,-5.21875 -0.61086,-1.32482 1.00448,-7.90499 2.5,-10.875 1.49551,-2.96999 1.8486,-0.31937 3.46875,-1 1.62014,-0.68062 1.81604,-1.78063 3,-1.71875 1.18395,0.0619 0.0676,1.47376 1.75,1.96875 1.68251,0.495 3.09931,-0.86625 4.96875,0 1.86945,0.86625 1.12911,3.22125 2.5,3.46875 1.37089,0.2475 3,-2.46875 3,-2.46875 l -0.75,-5.1875 -4.5,-0.75 c 0,0 -1.84935,-5.37688 -3.71875,-8.65625 -1.86945,-3.27937 -2.81306,-2.98375 -3,-4.46875 -0.18693,-1.485 3.43471,0.0732 2.5,-1.96875 -1.84737,-2.02865 -3.51689,-4.34331 -5.75,-5.9375 -2.34347,-1.67317 -3.41989,-1.47371 -6.34375,-4.28125 -2.3428,-3.36709 -4.82666,-4.38558 -7.40625,-4.25 z m -65.3125,1.59375 c -0.16023,0.0258 -0.291,0.0688 -0.4375,0.15625 -4.20043,3.55999 3.24695,2.50531 3.84375,6.59375 2.69172,-1.00565 -1.00286,-7.13748 -3.40625,-6.75 z m -33.5,117.71875 c -0.89853,0.0118 0.35124,3.05613 0.53125,0.21875 -0.22517,-0.14747 -0.40289,-0.22044 -0.53125,-0.21875 z m 1.875,10.75 c -2.8826,0.93058 2.41253,1.75458 0,0 z"
     id="path2647"
     style="fill:#f0f04e;fill-opacity:1;stroke:#000000;stroke-width:0.5;stroke-miterlimit:4;stroke-opacity:1;stroke-dasharray:none;display:inline" />
  <path
     d="m 341.59375,661.1875 c -0.17976,0.005 -0.35366,0.10545 -0.53125,0.3125 -9.70377,0.78256 -8.2098,12.26797 -15.46875,16.125 -2.53228,3.67495 -2.75543,10.05433 -4.71875,13.9375 3.31195,-2.02744 5.59465,-1.14967 8.15625,-0.46875 0.39257,-1.87004 6.56763,-4.59116 7.3125,-7.375 4.92295,-2.88006 4.44497,-7.14774 7.78125,-11.625 -1.8699,-2.05951 -4.35416,-6.09511 -1.84375,-10.28125 -0.11367,-0.39966 -0.3879,-0.63262 -0.6875,-0.625 z m -21.625,30.3125 c -2.03586,-0.0109 -0.85917,3.747 0,0 z"
     id="path2657"
     style="fill:#e45151;fill-opacity:1;stroke:#000000;stroke-width:0.5;stroke-miterlimit:4;stroke-opacity:1;stroke-dasharray:none;display:inline" />
  <g
     transform="matrix(0.496916,0,0,0.493415,-8385.902,-5007.009)"
     id="g2770"
     style="stroke:#000000;stroke-width:1.00976968;stroke-miterlimit:4;stroke-opacity:1;stroke-dasharray:none;display:inline">
    <g
       transform="translate(250.2893,-11.93883)"
       id="g35760"
       style="stroke:#000000;stroke-width:1.00976968;stroke-miterlimit:4;stroke-opacity:1;stroke-dasharray:none" />
    <g
       transform="translate(-249.7107,-11.93883)"
       id="g35765"
       style="stroke:#000000;stroke-width:1.00976968;stroke-miterlimit:4;stroke-opacity:1;stroke-dasharray:none" />
    <g
       transform="translate(250.2893,2224.366)"
       id="g35781"
       style="stroke:#000000;stroke-width:1.00976968;stroke-miterlimit:4;stroke-opacity:1;stroke-dasharray:none" />
    <g
       transform="translate(-249.7107,2224.366)"
       id="g35789"
       style="stroke:#000000;stroke-width:1.00976968;stroke-miterlimit:4;stroke-opacity:1;stroke-dasharray:none" />
    <g
       transform="translate(24.67765,-455.2513)"
       id="g35816"
       style="stroke:#000000;stroke-width:1.00976968;stroke-miterlimit:4;stroke-opacity:1;stroke-dasharray:none" />
    <g
       transform="translate(24.67765,476.9432)"
       id="g35821"
       style="stroke:#000000;stroke-width:1.00976968;stroke-miterlimit:4;stroke-opacity:1;stroke-dasharray:none" />
    <g
       transform="translate(24.67765,1299.573)"
       id="g35829"
       style="stroke:#000000;stroke-width:1.00976968;stroke-miterlimit:4;stroke-opacity:1;stroke-dasharray:none" />
    <g
       transform="translate(-978.1,-455.2513)"
       id="g35837"
       style="stroke:#000000;stroke-width:1.00976968;stroke-miterlimit:4;stroke-opacity:1;stroke-dasharray:none" />
    <g
       transform="translate(-978.1,476.9432)"
       id="g35845"
       style="stroke:#000000;stroke-width:1.00976968;stroke-miterlimit:4;stroke-opacity:1;stroke-dasharray:none" />
    <g
       transform="translate(-978.1,1299.573)"
       id="g35853"
       style="stroke:#000000;stroke-width:1.00976968;stroke-miterlimit:4;stroke-opacity:1;stroke-dasharray:none" />
    <g
       transform="translate(2.834646,-8.503938)"
       id="g4069"
       style="stroke:#000000;stroke-width:1.00976968;stroke-miterlimit:4;stroke-opacity:1;stroke-dasharray:none">
      <g
         id="g4036"
         style="font-size:24px;stroke:#000000;stroke-width:1.00976968;stroke-miterlimit:4;stroke-opacity:1;stroke-dasharray:none" />
    </g>
  </g>
  <g
     transform="matrix(0.496916,0,0,0.493415,-8385.902,-5007.009)"
     id="g2893"
     style="stroke:#000000;stroke-width:1.00976968;stroke-miterlimit:4;stroke-opacity:1;stroke-dasharray:none;display:inline">
    <g
       id="g41735"
       style="stroke:#000000;stroke-width:1.00976968;stroke-miterlimit:4;stroke-opacity:1;stroke-dasharray:none" />
  </g>
  <path
     d="m 490.7402,1300.6165 4.4473,-3.7103 -3.3125,-3.0624 -0.25,3.5624 -3.21873,-1.5936 -2.43747,-1.1874 -2.5625,-3.8438 -5.625,0 -2.3125,-5.0624 -5.90625,0 -5.125,-5.0938 -5.125,-2.5625 -4.875,-14.5 -2.3125,0 0.25,-2.3125 -7.9375,-7.625 0.25,-6.0938 8,-10.1405 4.78125,3.1405 1.0625,2.5313 4.40625,1.9375 3.40625,0.4062 1.46875,4 5.25,1.25 3.5625,0.6563 1.90625,-2.125 -1.90625,-2.7187 -0.8125,-5.9376 1.65625,-1.875 2.34375,0 1.0625,2.3438 -0.65625,4.1875 1.46875,1.0625 3.78125,-1.25 1.28125,-4.2188 -1.6875,-1.7187 4.21875,0 1.46875,-2.7187 1.46875,0.1874 3.375,3.1876 2.46875,0.3437 0.0625,-2.6563 -2.09375,-2.75 -1.90625,0 -0.625,0.2188 -1.28125,-0.625 1.0625,-1.0625 0,-1.9063 2.125,-0.625 1.25,-2.9374 -1.0625,-1.0626 -0.1875,-3.5937 -2.75,0 -2.71875,-3.375 0,-2.5 2.9375,-1.5 5.25,-1.0313 8.21875,0.2188 2.53125,-1.7188 -0.84375,-5.2812 -3.8125,-3.5625 -4.625,0.625 -1.25,-1.0625 -0.21875,-3.75 3.375,-2.9688 -2.53125,-3.1562 -1.6875,-4.4375 -2.75,-1.6875 0,-2.9375 -0.2813,-0.9377 1.15625,-1.3438 1.3125,-4.5937 3.3125,-8.1563 1.78125,-1 4.34375,0.5313 0,-6.875 -1.78125,-1.7813 0,-7.375 -0.78125,-2.5312 0,-4.0625 2.5625,-2.5625 0,-5.0625 -1.25,-1.0313 0.21875,-7.0937 -2.03125,-1.0313 -3.0625,0 -2.59375,-2.0312 -2.78125,3.2812 -2.28125,0.2813 -2.0625,2.7813 -2.03125,-0.5 -4.40625,-3.8126 -1.5,-4.8437 -0.77164,-3.2187 7.70914,-1.4688 -0.53125,-2.5625 -1.65625,-0.375 -3.96875,-0.9063 -3.59375,-9.1562 3.34375,-6.625 0,-7.125 -3.09375,-6.0938 0,-9.1562 -1.28125,-1.8125 -1.28125,-5.8437 -5.875,-6.625 -1.8125,-4.0626 0.53125,-4.8437 -0.78125,-0.5 -1.28125,-1.2813 2.0625,-2.5312 0,-5.5938 -5.40625,-4.3437 1.03125,-2.5313 9.5,2.7813 6.65625,4.3437 5.90625,-4.0937 11,0.5313 2.5625,6.875 -2.8125,0 -2.03125,5.0624 6.65625,7.9063 0.25,6.125 10,-2.5625 4.875,2.5625 20.71875,3 0.3125,0.031 8.71875,4.8437 11,-4.3125 9.75,-5.625 7.1875,-1.25 -7.4375,-1.5312 -5.125,-3.8126 1.28125,-7.1562 6.15625,-9.1562 10.5,-5.5938 12.8125,-4.5938 19.5,-4.8124 11.03125,-8.4063 9.96875,-12.2187 6.9375,4.0624 0,-2.5312 -5.65625,-5.0938 0.78125,-9.43745 0,-10.96845 0,-23.375 11.28125,-8.65625 14.875,-2.8125 14.40349,-2.20803 6.90907,357.96868 m -204.62506,-3.9486 -0.5,-2.5313 -3.09375,-2.0625 -4.34375,1.5312 2.09375,3.0313"
     id="path7299"
     style="color:#000000;fill:#ffffff;fill-opacity:1;stroke:#000000;stroke-width:0.5;stroke-linecap:round;stroke-linejoin:round;stroke-miterlimit:4;stroke-opacity:1;stroke-dasharray:none;stroke-dashoffset:0;marker:none;visibility:visible;display:inline;overflow:visible" />
</svg>
