<svg width="3865" height="1936" xmlns="http://www.w3.org/2000/svg" xmlns:xlink="http://www.w3.org/1999/xlink" xml:space="preserve" overflow="hidden"><defs><clipPath id="clip0"><rect x="153" y="347" width="3865" height="1936"/></clipPath></defs><g clip-path="url(#clip0)" transform="translate(-153 -347)"><rect x="153" y="347" width="3865" height="1936" fill="#FFFFFF"/><g><path d="M368.5 2016.57 417.514 2004.57 467.516 1989.57 516.517 1968.56 566.519 1953.56 616.52 1951.56 665.522 1911.56 715.524 1886.56 764.525 1861.56 814.527 1827.56 863.529 1800.56 913.53 1774.56 962.532 1718.56 1012.53 1686.56 1061.54 1646.55 1111.54 1617.55 1161.54 1594.55 1210.54 1581.55 1260.54 1560.55 1309.54 1529.55 1359.54 1503.55 1408.55 1468.55 1458.55 1491.55 1507.55 1495.55 1557.55 1463.55 1606.55 1451.55 1656.55 1425.55 1705.56 1430.55 1755.56 1387.55 1805.56 1375.55 1854.56 1352.54 1904.56 1343.54 1953.56 1303.54 2003.57 1285.54 2052.57 1240.54 2102.57 1172.54 2151.57 1104.54 2201.57 1018.53 2250.57 1005.53 2300.58 1016.53 2349.58 1015.53 2399.58 969.532 2449.58 956.532 2498.58 948.531 2548.58 940.531 2597.59 921.53 2647.59 914.53 2696.59 902.53 2746.59 909.53 2795.59 884.529 2845.59 844.528 2894.6 855.528 2944.6 849.528 2993.6 859.528 3043.6 848.528 3093.6 846.528 3142.6 860.528 3192.6 870.529 3241.61 898.53 3291.61 897.53 3340.61 889.529 3390.61 896.53 3439.61 869.529 3489.61 864.529 3538.62 842.528 3588.62 832.527 3638.62 816.527 3687.62 796.5 3737.62 1163.54 3786.62 1047.53 3836.63 912.53 3885.5 830.527 3885.5 2126.5 3836.63 2126.5 3786.62 2126.5 3737.62 2126.5 3687.62 2126.5 3638.62 2126.5 3588.62 2126.5 3538.62 2126.5 3489.61 2126.5 3439.61 2126.5 3390.61 2126.5 3340.61 2126.5 3291.61 2126.5 3241.61 2126.5 3192.6 2126.5 3142.6 2126.5 3093.6 2126.5 3043.6 2126.5 2993.6 2126.5 2944.6 2126.5 2894.6 2126.5 2845.59 2126.5 2795.59 2126.5 2746.59 2126.5 2696.59 2126.5 2647.59 2126.5 2597.59 2126.5 2548.58 2126.5 2498.58 2126.5 2449.58 2126.5 2399.58 2126.5 2349.58 2126.5 2300.58 2126.5 2250.57 2126.5 2201.57 2126.5 2151.57 2126.5 2102.57 2126.5 2052.57 2126.5 2003.57 2126.5 1953.56 2126.5 1904.56 2126.5 1854.56 2126.5 1805.56 2126.5 1755.56 2126.5 1705.56 2126.5 1656.55 2126.5 1606.55 2126.5 1557.55 2126.5 1507.55 2126.5 1458.55 2126.5 1408.55 2126.5 1359.54 2126.5 1309.54 2126.5 1260.54 2126.5 1210.54 2126.5 1161.54 2126.5 1111.54 2126.5 1061.54 2126.5 1012.53 2126.5 962.532 2126.5 913.53 2126.5 863.529 2126.5 814.527 2126.5 764.525 2126.5 715.524 2126.5 665.522 2126.5 616.52 2126.5 566.519 2126.5 516.517 2126.5 467.516 2126.5 417.514 2126.5 368.5 2126.5Z" stroke="#004D3B" stroke-width="3.4375" stroke-linejoin="round" stroke-miterlimit="10" fill="#004D3B"/></g><g><path d="M368.5 1710.56 417.514 1699.56 467.516 1688.56 516.517 1672.55 566.519 1660.55 616.52 1662.55 665.522 1635.55 715.524 1605.55 764.525 1589.55 814.527 1564.55 863.529 1550.55 913.53 1532.55 962.532 1479.55 1012.53 1461.55 1061.54 1423.55 1111.54 1401.55 1161.54 1387.55 1210.54 1372.55 1260.54 1357.54 1309.54 1329.54 1359.54 1304.54 1408.55 1266.54 1458.55 1286.54 1507.55 1288.54 1557.55 1262.54 1606.55 1247.54 1656.55 1223.54 1705.56 1229.54 1755.56 1190.54 1805.56 1184.54 1854.56 1165.54 1904.56 1151.54 1953.56 1109.54 2003.57 1090.54 2052.57 1047.53 2102.57 977.532 2151.57 906.53 2201.57 821.527 2250.57 810.527 2300.58 828.527 2349.58 833.527 2399.58 790.526 2449.58 779.526 2498.58 768.525 2548.58 755.525 2597.59 727.524 2647.59 715.524 2696.59 694.523 2746.59 700.523 2795.59 673.522 2845.59 628.521 2894.6 634.521 2944.6 638.521 2993.6 641.521 3043.6 628.521 3093.6 619.521 3142.6 625.521 3192.6 634.521 3241.61 656.522 3291.61 651.522 3340.61 641.521 3390.61 647.521 3439.61 613.52 3489.61 604.52 3538.62 589.519 3588.62 568.519 3638.62 555.518 3687.62 543.5 3737.62 1080.54 3786.62 896.53 3836.63 711.523 3885.5 602.52 3885.5 830.527 3836.63 912.53 3786.62 1047.53 3737.62 1163.54 3687.62 796.526 3638.62 816.527 3588.62 832.527 3538.62 842.528 3489.61 864.529 3439.61 869.529 3390.61 896.53 3340.61 889.529 3291.61 897.53 3241.61 898.53 3192.6 870.529 3142.6 860.528 3093.6 846.528 3043.6 848.528 2993.6 859.528 2944.6 849.528 2894.6 855.528 2845.59 844.528 2795.59 884.529 2746.59 909.53 2696.59 902.53 2647.59 914.53 2597.59 921.53 2548.58 940.531 2498.58 948.531 2449.58 956.531 2399.58 969.532 2349.58 1015.53 2300.58 1016.53 2250.57 1005.53 2201.57 1018.53 2151.57 1104.54 2102.57 1172.54 2052.57 1240.54 2003.57 1285.54 1953.56 1303.54 1904.56 1343.54 1854.56 1352.54 1805.56 1375.55 1755.56 1387.55 1705.56 1430.55 1656.55 1425.55 1606.55 1451.55 1557.55 1463.55 1507.55 1495.55 1458.55 1491.55 1408.55 1468.55 1359.54 1503.55 1309.54 1529.55 1260.54 1560.55 1210.54 1581.55 1161.54 1594.55 1111.54 1617.55 1061.54 1646.55 1012.53 1686.56 962.532 1718.56 913.53 1774.56 863.529 1800.56 814.527 1827.56 764.525 1861.56 715.524 1886.56 665.522 1911.56 616.52 1951.56 566.519 1953.56 516.517 1968.56 467.516 1989.57 417.514 2004.57 368.5 2016.5Z" stroke="#3C9F8B" stroke-width="3.4375" stroke-linejoin="round" stroke-miterlimit="10" fill="#3C9F8B"/></g><g><path d="M368.5 2126.5 3885.5 2126.5" stroke="#D9D9D9" stroke-width="3.4375" stroke-linejoin="round" stroke-miterlimit="10" fill="none" fill-rule="evenodd"/></g><g><path d="M368.5 2126.5 368.5 2148.5M417.514 2126.5 417.514 2148.5M467.516 2126.5 467.516 2148.5M516.517 2126.5 516.517 2148.5M566.519 2126.5 566.519 2148.5M616.52 2126.5 616.52 2148.5M665.522 2126.5 665.522 2148.5M715.524 2126.5 715.524 2148.5M764.525 2126.5 764.525 2148.5M814.527 2126.5 814.527 2148.5M863.529 2126.5 863.529 2148.5M913.53 2126.5 913.53 2148.5M962.532 2126.5 962.532 2148.5M1012.53 2126.5 1012.53 2148.5M1061.54 2126.5 1061.54 2148.5M1111.54 2126.5 1111.54 2148.5M1161.54 2126.5 1161.54 2148.5M1210.54 2126.5 1210.54 2148.5M1260.54 2126.5 1260.54 2148.5M1309.54 2126.5 1309.54 2148.5M1359.54 2126.5 1359.54 2148.5M1408.55 2126.5 1408.55 2148.5M1458.55 2126.5 1458.55 2148.5M1507.55 2126.5 1507.55 2148.5M1557.55 2126.5 1557.55 2148.5M1606.55 2126.5 1606.55 2148.5M1656.55 2126.5 1656.55 2148.5M1705.56 2126.5 1705.56 2148.5M1755.56 2126.5 1755.56 2148.5M1805.56 2126.5 1805.56 2148.5M1854.56 2126.5 1854.56 2148.5M1904.56 2126.5 1904.56 2148.5M1953.56 2126.5 1953.56 2148.5M2003.57 2126.5 2003.57 2148.5M2052.57 2126.5 2052.57 2148.5M2102.57 2126.5 2102.57 2148.5M2151.57 2126.5 2151.57 2148.5M2201.57 2126.5 2201.57 2148.5M2250.57 2126.5 2250.57 2148.5M2300.58 2126.5 2300.58 2148.5M2349.58 2126.5 2349.58 2148.5M2399.58 2126.5 2399.58 2148.5M2449.58 2126.5 2449.58 2148.5M2498.58 2126.5 2498.58 2148.5M2548.58 2126.5 2548.58 2148.5M2597.59 2126.5 2597.59 2148.5M2647.59 2126.5 2647.59 2148.5M2696.59 2126.5 2696.59 2148.5M2746.59 2126.5 2746.59 2148.5M2795.59 2126.5 2795.59 2148.5M2845.59 2126.5 2845.59 2148.5M2894.6 2126.5 2894.6 2148.5M2944.6 2126.5 2944.6 2148.5M2993.6 2126.5 2993.6 2148.5M3043.6 2126.5 3043.6 2148.5M3093.6 2126.5 3093.6 2148.5M3142.6 2126.5 3142.6 2148.5M3192.6 2126.5 3192.6 2148.5M3241.61 2126.5 3241.61 2148.5M3291.61 2126.5 3291.61 2148.5M3340.61 2126.5 3340.61 2148.5M3390.61 2126.5 3390.61 2148.5M3439.61 2126.5 3439.61 2148.5M3489.61 2126.5 3489.61 2148.5M3538.62 2126.5 3538.62 2148.5M3588.62 2126.5 3588.62 2148.5M3638.62 2126.5 3638.62 2148.5M3687.62 2126.5 3687.62 2148.5M3737.62 2126.5 3737.62 2148.5M3786.62 2126.5 3786.62 2148.5M3836.63 2126.5 3836.63 2148.5M3885.5 2126.5 3885.5 2148.5" stroke="#D9D9D9" stroke-width="3.4375" stroke-linejoin="round" stroke-miterlimit="10" fill="none"/></g><g><text font-family="Arial,Arial_MSFontService,sans-serif" font-weight="400" font-size="73" transform="matrix(1 0 0 1 264.487 2150)">0</text></g><g><text font-family="Arial,Arial_MSFontService,sans-serif" font-weight="400" font-size="73" transform="matrix(1 0 0 1 182.904 1959)">100</text></g><g><text font-family="Arial,Arial_MSFontService,sans-serif" font-weight="400" font-size="73" transform="matrix(1 0 0 1 182.904 1768)">200</text></g><g><text font-family="Arial,Arial_MSFontService,sans-serif" font-weight="400" font-size="73" transform="matrix(1 0 0 1 182.904 1578)">300</text></g><g><text font-family="Arial,Arial_MSFontService,sans-serif" font-weight="400" font-size="73" transform="matrix(1 0 0 1 182.904 1387)">400</text></g><g><text font-family="Arial,Arial_MSFontService,sans-serif" font-weight="400" font-size="73" transform="matrix(1 0 0 1 182.904 1196)">500</text></g><g><text font-family="Arial,Arial_MSFontService,sans-serif" font-weight="400" font-size="73" transform="matrix(1 0 0 1 182.904 1006)">600</text></g><g><text font-family="Arial,Arial_MSFontService,sans-serif" font-weight="400" font-size="73" transform="matrix(1 0 0 1 182.904 815)">700</text></g><g><text font-family="Arial,Arial_MSFontService,sans-serif" font-weight="400" font-size="73" transform="matrix(1 0 0 1 182.904 624)">800</text></g><g><text font-family="Arial,Arial_MSFontService,sans-serif" font-weight="400" font-size="73" transform="matrix(1 0 0 1 182.904 434)">900</text></g><g><text font-family="Arial,Arial_MSFontService,sans-serif" font-weight="400" font-size="73" transform="matrix(1 0 0 1 286.789 2237)">1952</text></g><g><text font-family="Arial,Arial_MSFontService,sans-serif" font-weight="400" font-size="73" transform="matrix(1 0 0 1 534.497 2237)">1957</text></g><g><text font-family="Arial,Arial_MSFontService,sans-serif" font-weight="400" font-size="73" transform="matrix(1 0 0 1 782.206 2237)">1962</text></g><g><text font-family="Arial,Arial_MSFontService,sans-serif" font-weight="400" font-size="73" transform="matrix(1 0 0 1 1029.91 2237)">1967</text></g><g><text font-family="Arial,Arial_MSFontService,sans-serif" font-weight="400" font-size="73" transform="matrix(1 0 0 1 1277.62 2237)">1972</text></g><g><text font-family="Arial,Arial_MSFontService,sans-serif" font-weight="400" font-size="73" transform="matrix(1 0 0 1 1525.33 2237)">1977</text></g><g><text font-family="Arial,Arial_MSFontService,sans-serif" font-weight="400" font-size="73" transform="matrix(1 0 0 1 1773.04 2237)">1982</text></g><g><text font-family="Arial,Arial_MSFontService,sans-serif" font-weight="400" font-size="73" transform="matrix(1 0 0 1 2020.75 2237)">1987</text></g><g><text font-family="Arial,Arial_MSFontService,sans-serif" font-weight="400" font-size="73" transform="matrix(1 0 0 1 2268.46 2237)">1992</text></g><g><text font-family="Arial,Arial_MSFontService,sans-serif" font-weight="400" font-size="73" transform="matrix(1 0 0 1 2516.17 2237)">1997</text></g><g><text font-family="Arial,Arial_MSFontService,sans-serif" font-weight="400" font-size="73" transform="matrix(1 0 0 1 2763.88 2237)">2002</text></g><g><text font-family="Arial,Arial_MSFontService,sans-serif" font-weight="400" font-size="73" transform="matrix(1 0 0 1 3011.58 2237)">2007</text></g><g><text font-family="Arial,Arial_MSFontService,sans-serif" font-weight="400" font-size="73" transform="matrix(1 0 0 1 3259.29 2237)">2012</text></g><g><text font-family="Arial,Arial_MSFontService,sans-serif" font-weight="400" font-size="73" transform="matrix(1 0 0 1 3507 2237)">2017</text></g><g><text font-family="Arial,Arial_MSFontService,sans-serif" font-weight="400" font-size="73" transform="matrix(1 0 0 1 3804.25 2237)">2023</text></g><text font-family="Arial,Arial_MSFontService,sans-serif" font-weight="700" font-size="110" transform="matrix(1 0 0 1 3149.29 808)">Other</text><text fill="#FFFFFF" font-family="Arial,Arial_MSFontService,sans-serif" font-weight="700" font-size="110" transform="matrix(1 0 0 1 3008.82 1524)">C</text><text fill="#FFFFFF" font-family="Arial,Arial_MSFontService,sans-serif" font-weight="700" font-size="110" transform="matrix(1 0 0 1 3088.46 1524)">ars</text><text fill="#FFFFFF" font-family="Arial,Arial_MSFontService,sans-serif" font-weight="700" font-size="110" transform="matrix(1 0 0 1 3254.03 1524)">, vans </text><text fill="#FFFFFF" font-family="Arial,Arial_MSFontService,sans-serif" font-weight="700" font-size="110" transform="matrix(1 0 0 1 3008.82 1656)">and taxis</text></g></svg>